<svg width="450" height="450" viewBox="0 0 450 450" fill="none" xmlns="http://www.w3.org/2000/svg">
    <g clip-path="url(#clip0)">
        <g filter="url(#filter0_d)">
            <path d="M65 25C65 22.7909 66.7909 21 69 21H299C301.209 21 303 22.7909 303 25V283C303 285.209 301.209 287 299 287H69C66.7909 287 65 285.209 65 283V25Z"
                  fill="white"/>
        </g>
        <g filter="url(#filter1_d)">
            <path d="M94 104.934H375V411C375 415.418 371.418 419 367 419H102C97.5817 419 94 415.418 94 411V104.934Z"
                  fill="white"/>
            <path d="M94 57C94 52.5817 97.5817 49 102 49H367C371.418 49 375 52.5817 375 57V105H94V57Z"
                  fill="url(#paint0_linear)"/>
        </g>
        <path d="M201.3 145.48C201.3 146.2 201.024 146.692 200.208 146.692C199.848 146.692 199.5 146.632 199.2 146.512V147.844C199.5 147.952 199.932 148.048 200.496 148.048C202.068 148.048 202.74 147.052 202.74 145.6V140.116H201.3V145.48ZM208.278 146.5C208.854 146.5 209.418 146.44 210.054 146.32L210.606 148H212.19L209.286 140.116H207.342L204.426 148H206.01L206.562 146.32C207.174 146.44 207.726 146.5 208.278 146.5ZM208.278 145.324C207.858 145.324 207.426 145.288 206.934 145.216L208.314 141.064L209.682 145.204C209.166 145.288 208.722 145.324 208.278 145.324ZM219.379 140.116V145.828L218.263 143.692L216.067 140.116H214.147V148H215.539V141.616L216.763 143.908L219.271 148H220.771V140.116H219.379ZM226.055 144.136V145.432H229.883V144.136H226.055ZM239.987 148V146.68H238.535C237.815 146.68 236.855 146.752 236.171 146.836L238.151 145.372C239.207 144.592 239.975 143.764 239.975 142.552C239.975 141.04 239.111 139.996 237.227 139.996C235.979 139.996 235.283 140.356 234.743 140.668V142.036C235.499 141.604 236.291 141.34 237.059 141.34C237.959 141.34 238.547 141.724 238.547 142.6C238.547 143.38 238.043 143.908 237.359 144.46L234.563 146.68V148H239.987ZM245.131 148.132C247.207 148.132 248.383 146.452 248.383 144.04C248.383 141.664 247.207 139.996 245.131 139.996C243.043 139.996 241.867 141.664 241.867 144.04C241.867 146.452 243.043 148.132 245.131 148.132ZM245.131 141.316C246.475 141.316 247.003 142.54 247.003 144.04C247.003 145.576 246.475 146.8 245.131 146.8C243.775 146.8 243.247 145.576 243.247 144.04C243.247 142.54 243.775 141.316 245.131 141.316ZM255.651 148V146.68H254.199C253.479 146.68 252.519 146.752 251.835 146.836L253.815 145.372C254.871 144.592 255.639 143.764 255.639 142.552C255.639 141.04 254.775 139.996 252.891 139.996C251.643 139.996 250.947 140.356 250.407 140.668V142.036C251.163 141.604 251.955 141.34 252.723 141.34C253.623 141.34 254.211 141.724 254.211 142.6C254.211 143.38 253.707 143.908 253.023 144.46L250.227 146.68V148H255.651ZM262.607 148V146.416H263.603V145.216H262.607V140.116H261.167L257.423 145.144V146.416H261.167V148H262.607ZM259.979 143.428C260.363 142.9 260.807 142.216 261.215 141.532V145.216H260.939C260.063 145.216 259.439 145.228 258.551 145.312L259.979 143.428Z"
              fill="#97A0AF"/>
        <rect x="123" y="367" width="103" height="24" rx="4" fill="#99D18F"/>
        <rect x="236" y="367" width="104" height="24" rx="4" fill="#DFE1E6"/>
        <rect x="221" y="261" width="24" height="24" rx="2" fill="#298FCA"/>
        <path d="M329.133 339.378V340.178C329.314 340.156 329.507 340.144 329.711 340.144C329.953 340.144 330.176 340.178 330.38 340.244C330.592 340.304 330.774 340.4 330.925 340.533C331.076 340.659 331.197 340.819 331.288 341.011C331.378 341.196 331.424 341.411 331.424 341.656C331.424 341.893 331.375 342.107 331.276 342.3C331.186 342.485 331.061 342.644 330.902 342.778C330.743 342.904 330.558 343.004 330.346 343.078C330.135 343.144 329.912 343.178 329.677 343.178C329.125 343.178 328.706 343.019 328.418 342.7C328.131 342.374 327.98 341.956 327.965 341.444H327.001C326.993 341.852 327.05 342.215 327.171 342.533C327.299 342.852 327.481 343.122 327.715 343.344C327.95 343.559 328.233 343.722 328.566 343.833C328.898 343.944 329.269 344 329.677 344C330.055 344 330.411 343.952 330.743 343.856C331.084 343.752 331.378 343.6 331.628 343.4C331.877 343.2 332.074 342.952 332.218 342.656C332.369 342.352 332.445 342.004 332.445 341.611C332.445 341.137 332.324 340.726 332.082 340.378C331.847 340.03 331.484 339.804 330.993 339.7V339.678C331.31 339.537 331.575 339.33 331.787 339.056C331.998 338.781 332.104 338.467 332.104 338.111C332.104 337.748 332.04 337.433 331.912 337.167C331.791 336.9 331.62 336.681 331.401 336.511C331.182 336.341 330.921 336.215 330.619 336.133C330.324 336.044 330.002 336 329.655 336C329.254 336 328.898 336.063 328.588 336.189C328.286 336.315 328.033 336.489 327.829 336.711C327.624 336.933 327.466 337.2 327.352 337.511C327.246 337.822 327.186 338.167 327.171 338.544H328.135C328.135 338.315 328.165 338.096 328.226 337.889C328.286 337.681 328.377 337.5 328.498 337.344C328.626 337.189 328.785 337.067 328.974 336.978C329.171 336.881 329.397 336.833 329.655 336.833C330.063 336.833 330.403 336.941 330.675 337.156C330.947 337.363 331.084 337.678 331.084 338.1C331.084 338.307 331.042 338.493 330.959 338.656C330.876 338.819 330.762 338.956 330.619 339.067C330.482 339.17 330.32 339.252 330.131 339.311C329.949 339.363 329.757 339.389 329.552 339.389H329.348C329.311 339.389 329.273 339.389 329.235 339.389C329.205 339.389 329.171 339.385 329.133 339.378Z"
              fill="#97A0AF"/>
        <path d="M337 343.878V336H336.263C336.21 336.296 336.112 336.541 335.968 336.733C335.824 336.926 335.647 337.078 335.435 337.189C335.231 337.3 335 337.378 334.743 337.422C334.486 337.459 334.221 337.478 333.949 337.478V338.233H336.036V343.878H337Z"
              fill="#97A0AF"/>
        <path d="M295.346 339.378V340.178C295.546 340.156 295.758 340.144 295.982 340.144C296.249 340.144 296.494 340.178 296.718 340.244C296.951 340.304 297.151 340.4 297.317 340.533C297.484 340.659 297.617 340.819 297.717 341.011C297.816 341.196 297.866 341.411 297.866 341.656C297.866 341.893 297.812 342.107 297.704 342.3C297.604 342.485 297.467 342.644 297.292 342.778C297.118 342.904 296.914 343.004 296.681 343.078C296.448 343.144 296.203 343.178 295.945 343.178C295.338 343.178 294.876 343.019 294.56 342.7C294.244 342.374 294.078 341.956 294.061 341.444H293.001C292.992 341.852 293.055 342.215 293.188 342.533C293.329 342.852 293.529 343.122 293.787 343.344C294.045 343.559 294.356 343.722 294.722 343.833C295.088 343.944 295.496 344 295.945 344C296.361 344 296.752 343.952 297.118 343.856C297.492 343.752 297.816 343.6 298.091 343.4C298.365 343.2 298.581 342.952 298.739 342.656C298.906 342.352 298.989 342.004 298.989 341.611C298.989 341.137 298.856 340.726 298.59 340.378C298.332 340.03 297.933 339.804 297.392 339.7V339.678C297.741 339.537 298.033 339.33 298.265 339.056C298.498 338.781 298.615 338.467 298.615 338.111C298.615 337.748 298.544 337.433 298.403 337.167C298.27 336.9 298.082 336.681 297.841 336.511C297.6 336.341 297.313 336.215 296.98 336.133C296.656 336.044 296.303 336 295.92 336C295.479 336 295.088 336.063 294.747 336.189C294.415 336.315 294.136 336.489 293.911 336.711C293.687 336.933 293.512 337.2 293.387 337.511C293.271 337.822 293.205 338.167 293.188 338.544H294.248C294.248 338.315 294.282 338.096 294.348 337.889C294.415 337.681 294.514 337.5 294.648 337.344C294.789 337.189 294.964 337.067 295.171 336.978C295.388 336.881 295.637 336.833 295.92 336.833C296.369 336.833 296.743 336.941 297.043 337.156C297.342 337.363 297.492 337.678 297.492 338.1C297.492 338.307 297.446 338.493 297.355 338.656C297.263 338.819 297.138 338.956 296.98 339.067C296.831 339.17 296.652 339.252 296.444 339.311C296.244 339.363 296.032 339.389 295.808 339.389H295.583C295.542 339.389 295.5 339.389 295.458 339.389C295.425 339.389 295.388 339.385 295.346 339.378Z"
              fill="#97A0AF"/>
        <path d="M304 343.878V336H303.189C303.131 336.296 303.023 336.541 302.865 336.733C302.707 336.926 302.511 337.078 302.278 337.189C302.054 337.3 301.8 337.378 301.517 337.422C301.235 337.459 300.943 337.478 300.644 337.478V338.233H302.94V343.878H304Z"
              fill="#97A0AF"/>
        <path d="M262.133 339.378V340.178C262.314 340.156 262.507 340.144 262.711 340.144C262.953 340.144 263.176 340.178 263.38 340.244C263.592 340.304 263.774 340.4 263.925 340.533C264.076 340.659 264.197 340.819 264.288 341.011C264.378 341.196 264.424 341.411 264.424 341.656C264.424 341.893 264.375 342.107 264.276 342.3C264.186 342.485 264.061 342.644 263.902 342.778C263.743 342.904 263.558 343.004 263.346 343.078C263.135 343.144 262.912 343.178 262.677 343.178C262.125 343.178 261.706 343.019 261.418 342.7C261.131 342.374 260.98 341.956 260.965 341.444H260.001C259.993 341.852 260.05 342.215 260.171 342.533C260.299 342.852 260.481 343.122 260.715 343.344C260.95 343.559 261.233 343.722 261.566 343.833C261.898 343.944 262.269 344 262.677 344C263.055 344 263.411 343.952 263.743 343.856C264.084 343.752 264.378 343.6 264.628 343.4C264.877 343.2 265.074 342.952 265.218 342.656C265.369 342.352 265.445 342.004 265.445 341.611C265.445 341.137 265.324 340.726 265.082 340.378C264.847 340.03 264.484 339.804 263.993 339.7V339.678C264.31 339.537 264.575 339.33 264.787 339.056C264.998 338.781 265.104 338.467 265.104 338.111C265.104 337.748 265.04 337.433 264.912 337.167C264.791 336.9 264.62 336.681 264.401 336.511C264.182 336.341 263.921 336.215 263.619 336.133C263.324 336.044 263.002 336 262.655 336C262.254 336 261.898 336.063 261.588 336.189C261.286 336.315 261.033 336.489 260.829 336.711C260.624 336.933 260.466 337.2 260.352 337.511C260.246 337.822 260.186 338.167 260.171 338.544H261.135C261.135 338.315 261.165 338.096 261.226 337.889C261.286 337.681 261.377 337.5 261.498 337.344C261.626 337.189 261.785 337.067 261.974 336.978C262.171 336.881 262.397 336.833 262.655 336.833C263.063 336.833 263.403 336.941 263.675 337.156C263.947 337.363 264.084 337.678 264.084 338.1C264.084 338.307 264.042 338.493 263.959 338.656C263.876 338.819 263.762 338.956 263.619 339.067C263.482 339.17 263.32 339.252 263.131 339.311C262.949 339.363 262.757 339.389 262.552 339.389H262.348C262.311 339.389 262.273 339.389 262.235 339.389C262.205 339.389 262.171 339.385 262.133 339.378Z"
              fill="#97A0AF"/>
        <path d="M270 343.878V336H269.263C269.21 336.296 269.112 336.541 268.968 336.733C268.824 336.926 268.647 337.078 268.435 337.189C268.231 337.3 268 337.378 267.743 337.422C267.486 337.459 267.221 337.478 266.949 337.478V338.233H269.036V343.878H270Z"
              fill="#97A0AF"/>
        <path d="M228.133 339.378V340.178C228.314 340.156 228.507 340.144 228.711 340.144C228.953 340.144 229.176 340.178 229.38 340.244C229.592 340.304 229.774 340.4 229.925 340.533C230.076 340.659 230.197 340.819 230.288 341.011C230.378 341.196 230.424 341.411 230.424 341.656C230.424 341.893 230.375 342.107 230.276 342.3C230.186 342.485 230.061 342.644 229.902 342.778C229.743 342.904 229.558 343.004 229.346 343.078C229.135 343.144 228.912 343.178 228.677 343.178C228.125 343.178 227.706 343.019 227.418 342.7C227.131 342.374 226.98 341.956 226.965 341.444H226.001C225.993 341.852 226.05 342.215 226.171 342.533C226.299 342.852 226.481 343.122 226.715 343.344C226.95 343.559 227.233 343.722 227.566 343.833C227.898 343.944 228.269 344 228.677 344C229.055 344 229.411 343.952 229.743 343.856C230.084 343.752 230.378 343.6 230.628 343.4C230.877 343.2 231.074 342.952 231.218 342.656C231.369 342.352 231.445 342.004 231.445 341.611C231.445 341.137 231.324 340.726 231.082 340.378C230.847 340.03 230.484 339.804 229.993 339.7V339.678C230.31 339.537 230.575 339.33 230.787 339.056C230.998 338.781 231.104 338.467 231.104 338.111C231.104 337.748 231.04 337.433 230.912 337.167C230.791 336.9 230.62 336.681 230.401 336.511C230.182 336.341 229.921 336.215 229.619 336.133C229.324 336.044 229.002 336 228.655 336C228.254 336 227.898 336.063 227.588 336.189C227.286 336.315 227.033 336.489 226.829 336.711C226.624 336.933 226.466 337.2 226.352 337.511C226.246 337.822 226.186 338.167 226.171 338.544H227.135C227.135 338.315 227.165 338.096 227.226 337.889C227.286 337.681 227.377 337.5 227.498 337.344C227.626 337.189 227.785 337.067 227.974 336.978C228.171 336.881 228.397 336.833 228.655 336.833C229.063 336.833 229.403 336.941 229.675 337.156C229.947 337.363 230.084 337.678 230.084 338.1C230.084 338.307 230.042 338.493 229.959 338.656C229.876 338.819 229.762 338.956 229.619 339.067C229.482 339.17 229.32 339.252 229.131 339.311C228.949 339.363 228.757 339.389 228.552 339.389H228.348C228.311 339.389 228.273 339.389 228.235 339.389C228.205 339.389 228.171 339.385 228.133 339.378Z"
              fill="#97A0AF"/>
        <path d="M236 343.878V336H235.263C235.21 336.296 235.112 336.541 234.968 336.733C234.824 336.926 234.647 337.078 234.435 337.189C234.231 337.3 234 337.378 233.743 337.422C233.486 337.459 233.221 337.478 232.949 337.478V338.233H235.036V343.878H236Z"
              fill="#97A0AF"/>
        <path d="M194.346 339.378V340.178C194.546 340.156 194.758 340.144 194.982 340.144C195.249 340.144 195.494 340.178 195.718 340.244C195.951 340.304 196.151 340.4 196.317 340.533C196.484 340.659 196.617 340.819 196.717 341.011C196.816 341.196 196.866 341.411 196.866 341.656C196.866 341.893 196.812 342.107 196.704 342.3C196.604 342.485 196.467 342.644 196.292 342.778C196.118 342.904 195.914 343.004 195.681 343.078C195.448 343.144 195.203 343.178 194.945 343.178C194.338 343.178 193.876 343.019 193.56 342.7C193.244 342.374 193.078 341.956 193.061 341.444H192.001C191.992 341.852 192.055 342.215 192.188 342.533C192.329 342.852 192.529 343.122 192.787 343.344C193.045 343.559 193.356 343.722 193.722 343.833C194.088 343.944 194.496 344 194.945 344C195.361 344 195.752 343.952 196.118 343.856C196.492 343.752 196.816 343.6 197.091 343.4C197.365 343.2 197.581 342.952 197.739 342.656C197.906 342.352 197.989 342.004 197.989 341.611C197.989 341.137 197.856 340.726 197.59 340.378C197.332 340.03 196.933 339.804 196.392 339.7V339.678C196.741 339.537 197.033 339.33 197.265 339.056C197.498 338.781 197.615 338.467 197.615 338.111C197.615 337.748 197.544 337.433 197.403 337.167C197.27 336.9 197.082 336.681 196.841 336.511C196.6 336.341 196.313 336.215 195.98 336.133C195.656 336.044 195.303 336 194.92 336C194.479 336 194.088 336.063 193.747 336.189C193.415 336.315 193.136 336.489 192.911 336.711C192.687 336.933 192.512 337.2 192.387 337.511C192.271 337.822 192.205 338.167 192.188 338.544H193.248C193.248 338.315 193.282 338.096 193.348 337.889C193.415 337.681 193.514 337.5 193.648 337.344C193.789 337.189 193.964 337.067 194.171 336.978C194.388 336.881 194.637 336.833 194.92 336.833C195.369 336.833 195.743 336.941 196.043 337.156C196.342 337.363 196.492 337.678 196.492 338.1C196.492 338.307 196.446 338.493 196.355 338.656C196.263 338.819 196.138 338.956 195.98 339.067C195.831 339.17 195.652 339.252 195.444 339.311C195.244 339.363 195.032 339.389 194.808 339.389H194.583C194.542 339.389 194.5 339.389 194.458 339.389C194.425 339.389 194.388 339.385 194.346 339.378Z"
              fill="#97A0AF"/>
        <path d="M203 343.878V336H202.189C202.131 336.296 202.023 336.541 201.865 336.733C201.707 336.926 201.511 337.078 201.278 337.189C201.054 337.3 200.8 337.378 200.517 337.422C200.235 337.459 199.943 337.478 199.644 337.478V338.233H201.94V343.878H203Z"
              fill="#97A0AF"/>
        <path d="M160.351 339.378V340.178C160.551 340.156 160.764 340.144 160.989 340.144C161.256 340.144 161.502 340.178 161.727 340.244C161.96 340.304 162.16 340.4 162.327 340.533C162.494 340.659 162.627 340.819 162.727 341.011C162.827 341.196 162.877 341.411 162.877 341.656C162.877 341.893 162.823 342.107 162.714 342.3C162.614 342.485 162.477 342.644 162.302 342.778C162.127 342.904 161.923 343.004 161.689 343.078C161.456 343.144 161.21 343.178 160.952 343.178C160.343 343.178 159.88 343.019 159.564 342.7C159.247 342.374 159.08 341.956 159.064 341.444H158.001C157.992 341.852 158.055 342.215 158.188 342.533C158.33 342.852 158.53 343.122 158.788 343.344C159.047 343.559 159.359 343.722 159.726 343.833C160.093 343.944 160.501 344 160.952 344C161.368 344 161.76 343.952 162.127 343.856C162.502 343.752 162.827 343.6 163.102 343.4C163.377 343.2 163.594 342.952 163.752 342.656C163.919 342.352 164.002 342.004 164.002 341.611C164.002 341.137 163.869 340.726 163.602 340.378C163.344 340.03 162.944 339.804 162.402 339.7V339.678C162.752 339.537 163.044 339.33 163.277 339.056C163.511 338.781 163.627 338.467 163.627 338.111C163.627 337.748 163.556 337.433 163.415 337.167C163.281 336.9 163.094 336.681 162.852 336.511C162.61 336.341 162.323 336.215 161.989 336.133C161.664 336.044 161.31 336 160.927 336C160.485 336 160.093 336.063 159.751 336.189C159.418 336.315 159.139 336.489 158.913 336.711C158.688 336.933 158.513 337.2 158.388 337.511C158.272 337.822 158.205 338.167 158.188 338.544H159.251C159.251 338.315 159.284 338.096 159.351 337.889C159.418 337.681 159.518 337.5 159.651 337.344C159.793 337.189 159.968 337.067 160.176 336.978C160.393 336.881 160.643 336.833 160.927 336.833C161.377 336.833 161.752 336.941 162.052 337.156C162.352 337.363 162.502 337.678 162.502 338.1C162.502 338.307 162.456 338.493 162.364 338.656C162.273 338.819 162.148 338.956 161.989 339.067C161.839 339.17 161.66 339.252 161.452 339.311C161.252 339.363 161.039 339.389 160.814 339.389H160.589C160.547 339.389 160.506 339.389 160.464 339.389C160.431 339.389 160.393 339.385 160.351 339.378Z"
              fill="#97A0AF"/>
        <path d="M166.224 340C166.224 339.807 166.224 339.596 166.224 339.367C166.232 339.13 166.253 338.896 166.286 338.667C166.328 338.43 166.382 338.2 166.449 337.978C166.524 337.756 166.628 337.563 166.761 337.4C166.903 337.23 167.078 337.093 167.287 336.989C167.495 336.885 167.749 336.833 168.049 336.833C168.349 336.833 168.604 336.885 168.812 336.989C169.02 337.093 169.191 337.23 169.325 337.4C169.466 337.563 169.57 337.756 169.637 337.978C169.712 338.2 169.766 338.43 169.8 338.667C169.841 338.896 169.862 339.13 169.862 339.367C169.871 339.596 169.875 339.807 169.875 340C169.875 340.296 169.862 340.63 169.837 341C169.821 341.363 169.754 341.707 169.637 342.033C169.529 342.352 169.35 342.622 169.099 342.844C168.849 343.067 168.499 343.178 168.049 343.178C167.599 343.178 167.249 343.067 166.999 342.844C166.749 342.622 166.565 342.352 166.449 342.033C166.34 341.707 166.274 341.363 166.249 341C166.232 340.63 166.224 340.296 166.224 340ZM165.098 340.011C165.098 340.3 165.107 340.6 165.123 340.911C165.14 341.222 165.182 341.526 165.248 341.822C165.315 342.119 165.411 342.4 165.536 342.667C165.661 342.926 165.832 343.156 166.049 343.356C166.265 343.556 166.536 343.715 166.861 343.833C167.195 343.944 167.591 344 168.049 344C168.516 344 168.912 343.944 169.237 343.833C169.562 343.715 169.833 343.556 170.05 343.356C170.266 343.156 170.437 342.926 170.562 342.667C170.687 342.4 170.783 342.119 170.85 341.822C170.917 341.526 170.958 341.222 170.975 340.911C170.992 340.6 171 340.3 171 340.011C171 339.722 170.992 339.422 170.975 339.111C170.958 338.8 170.917 338.496 170.85 338.2C170.783 337.904 170.687 337.622 170.562 337.356C170.437 337.089 170.266 336.856 170.05 336.656C169.833 336.456 169.558 336.296 169.225 336.178C168.899 336.059 168.508 336 168.049 336C167.591 336 167.195 336.059 166.861 336.178C166.536 336.296 166.265 336.456 166.049 336.656C165.832 336.856 165.661 337.089 165.536 337.356C165.411 337.622 165.315 337.904 165.248 338.2C165.182 338.496 165.14 338.8 165.123 339.111C165.107 339.422 165.098 339.722 165.098 340.011Z"
              fill="#97A0AF"/>
        <path d="M125.23 338.789H126.21C126.202 338.552 126.225 338.319 126.279 338.089C126.34 337.852 126.436 337.641 126.567 337.456C126.697 337.27 126.862 337.122 127.062 337.011C127.269 336.893 127.515 336.833 127.799 336.833C128.014 336.833 128.218 336.867 128.41 336.933C128.602 337 128.767 337.096 128.905 337.222C129.051 337.348 129.166 337.5 129.251 337.678C129.335 337.848 129.378 338.041 129.378 338.256C129.378 338.53 129.332 338.77 129.239 338.978C129.155 339.185 129.024 339.378 128.848 339.556C128.679 339.733 128.464 339.911 128.203 340.089C127.941 340.259 127.638 340.448 127.292 340.656C127.008 340.819 126.736 340.993 126.475 341.178C126.213 341.363 125.979 341.578 125.772 341.822C125.564 342.067 125.392 342.356 125.253 342.689C125.123 343.015 125.038 343.411 125 343.878H130.334V343.044H126.14C126.187 342.8 126.283 342.585 126.428 342.4C126.582 342.207 126.763 342.03 126.97 341.867C127.185 341.704 127.419 341.552 127.673 341.411C127.926 341.263 128.18 341.115 128.433 340.967C128.686 340.811 128.932 340.648 129.17 340.478C129.408 340.307 129.62 340.119 129.804 339.911C129.988 339.696 130.134 339.456 130.242 339.189C130.357 338.922 130.414 338.615 130.414 338.267C130.414 337.896 130.345 337.57 130.207 337.289C130.076 337.007 129.896 336.774 129.666 336.589C129.435 336.396 129.163 336.252 128.848 336.156C128.54 336.052 128.21 336 127.857 336C127.427 336 127.043 336.07 126.705 336.211C126.367 336.352 126.083 336.548 125.852 336.8C125.63 337.044 125.465 337.337 125.357 337.678C125.25 338.019 125.207 338.389 125.23 338.789Z"
              fill="#97A0AF"/>
        <path d="M132.668 341.978H131.689C131.751 342.659 132.008 343.167 132.461 343.5C132.914 343.833 133.483 344 134.166 344C135.157 344 135.875 343.637 136.32 342.911C136.773 342.178 137 341.13 137 339.767C137 339.019 136.923 338.404 136.77 337.922C136.624 337.433 136.424 337.048 136.171 336.767C135.917 336.485 135.621 336.289 135.284 336.178C134.946 336.059 134.585 336 134.201 336C133.809 336 133.448 336.063 133.118 336.189C132.788 336.315 132.503 336.493 132.265 336.722C132.027 336.944 131.843 337.215 131.712 337.533C131.582 337.844 131.516 338.189 131.516 338.567C131.516 338.952 131.57 339.307 131.678 339.633C131.793 339.959 131.958 340.237 132.173 340.467C132.396 340.696 132.668 340.878 132.991 341.011C133.314 341.137 133.682 341.2 134.097 341.2C134.496 341.2 134.865 341.104 135.203 340.911C135.541 340.711 135.802 340.444 135.986 340.111L136.009 340.133C135.979 341.163 135.813 341.93 135.514 342.433C135.214 342.93 134.765 343.178 134.166 343.178C133.774 343.178 133.436 343.074 133.152 342.867C132.868 342.659 132.707 342.363 132.668 341.978ZM135.836 338.633C135.836 338.863 135.798 339.085 135.721 339.3C135.644 339.507 135.533 339.693 135.387 339.856C135.241 340.011 135.065 340.137 134.857 340.233C134.65 340.322 134.42 340.367 134.166 340.367C133.928 340.367 133.709 340.322 133.509 340.233C133.317 340.137 133.148 340.011 133.003 339.856C132.864 339.7 132.753 339.522 132.668 339.322C132.592 339.122 132.553 338.915 132.553 338.7C132.553 338.456 132.58 338.222 132.634 338C132.695 337.778 132.788 337.581 132.91 337.411C133.041 337.233 133.206 337.093 133.406 336.989C133.613 336.885 133.863 336.833 134.155 336.833C134.431 336.833 134.673 336.881 134.88 336.978C135.088 337.074 135.26 337.207 135.399 337.378C135.545 337.541 135.652 337.73 135.721 337.944C135.798 338.159 135.836 338.389 135.836 338.633Z"
              fill="#97A0AF"/>
        <path d="M327.229 305.137H328.203C328.195 304.871 328.218 304.608 328.271 304.35C328.332 304.083 328.428 303.846 328.558 303.638C328.688 303.429 328.852 303.262 329.05 303.138C329.256 303.004 329.501 302.938 329.783 302.938C329.997 302.938 330.199 302.975 330.39 303.05C330.581 303.125 330.745 303.233 330.883 303.375C331.028 303.517 331.143 303.688 331.227 303.888C331.311 304.079 331.353 304.296 331.353 304.537C331.353 304.846 331.307 305.117 331.215 305.35C331.131 305.583 331.001 305.8 330.826 306C330.658 306.2 330.444 306.4 330.184 306.6C329.925 306.792 329.623 307.004 329.279 307.237C328.997 307.421 328.726 307.617 328.466 307.825C328.206 308.033 327.974 308.275 327.767 308.55C327.561 308.825 327.389 309.15 327.252 309.525C327.122 309.892 327.038 310.337 327 310.863H332.303V309.925H328.134C328.18 309.65 328.275 309.408 328.42 309.2C328.573 308.983 328.752 308.783 328.959 308.6C329.172 308.417 329.405 308.246 329.657 308.088C329.909 307.921 330.161 307.754 330.413 307.588C330.665 307.412 330.91 307.229 331.146 307.037C331.383 306.846 331.593 306.633 331.776 306.4C331.96 306.158 332.105 305.887 332.212 305.587C332.326 305.287 332.383 304.942 332.383 304.55C332.383 304.133 332.315 303.767 332.177 303.45C332.047 303.133 331.868 302.871 331.639 302.663C331.41 302.446 331.139 302.283 330.826 302.175C330.52 302.058 330.192 302 329.841 302C329.413 302 329.031 302.079 328.695 302.237C328.359 302.396 328.077 302.617 327.848 302.9C327.626 303.175 327.462 303.504 327.355 303.888C327.248 304.271 327.206 304.687 327.229 305.137Z"
              fill="#97A0AF"/>
        <path d="M334.865 304.3C334.865 304.075 334.903 303.879 334.98 303.713C335.056 303.546 335.155 303.404 335.277 303.288C335.407 303.171 335.56 303.083 335.736 303.025C335.911 302.967 336.094 302.938 336.285 302.938C336.682 302.938 337.007 303.054 337.259 303.288C337.519 303.512 337.648 303.85 337.648 304.3C337.648 304.75 337.522 305.1 337.27 305.35C337.018 305.6 336.698 305.725 336.308 305.725C336.11 305.725 335.923 305.696 335.747 305.638C335.571 305.579 335.419 305.492 335.289 305.375C335.159 305.258 335.056 305.112 334.98 304.937C334.903 304.754 334.865 304.542 334.865 304.3ZM333.834 304.263C333.834 304.662 333.937 305.033 334.143 305.375C334.35 305.708 334.625 305.95 334.968 306.1C334.51 306.275 334.159 306.558 333.914 306.95C333.67 307.333 333.548 307.787 333.548 308.312C333.548 308.763 333.617 309.158 333.754 309.5C333.899 309.833 334.094 310.112 334.338 310.337C334.59 310.562 334.884 310.729 335.22 310.837C335.556 310.946 335.919 311 336.308 311C336.682 311 337.034 310.942 337.362 310.825C337.69 310.708 337.973 310.537 338.21 310.312C338.454 310.079 338.645 309.796 338.782 309.463C338.927 309.129 339 308.746 339 308.312C339 307.763 338.882 307.3 338.645 306.925C338.408 306.542 338.045 306.267 337.557 306.1C337.9 305.933 338.171 305.688 338.37 305.362C338.576 305.029 338.679 304.662 338.679 304.263C338.679 303.979 338.633 303.704 338.542 303.438C338.45 303.163 338.305 302.921 338.107 302.713C337.916 302.496 337.664 302.325 337.351 302.2C337.038 302.067 336.66 302 336.217 302C335.904 302 335.602 302.05 335.312 302.15C335.029 302.25 334.777 302.396 334.556 302.587C334.334 302.779 334.159 303.017 334.029 303.3C333.899 303.575 333.834 303.896 333.834 304.263ZM334.579 308.362C334.579 308.104 334.621 307.871 334.705 307.662C334.796 307.454 334.919 307.275 335.071 307.125C335.232 306.975 335.415 306.863 335.621 306.787C335.835 306.704 336.06 306.662 336.297 306.662C336.526 306.662 336.74 306.708 336.938 306.8C337.144 306.883 337.324 307 337.477 307.15C337.629 307.3 337.748 307.479 337.832 307.688C337.923 307.888 337.969 308.108 337.969 308.35C337.969 308.6 337.927 308.829 337.843 309.037C337.767 309.246 337.652 309.429 337.5 309.587C337.354 309.737 337.179 309.858 336.973 309.95C336.774 310.033 336.553 310.075 336.308 310.075C335.804 310.075 335.388 309.925 335.06 309.625C334.739 309.317 334.579 308.896 334.579 308.362Z"
              fill="#97A0AF"/>
        <path d="M293.25 305.186H294.312C294.303 304.915 294.328 304.649 294.387 304.386C294.453 304.116 294.557 303.874 294.699 303.663C294.84 303.451 295.02 303.282 295.236 303.155C295.461 303.02 295.727 302.952 296.036 302.952C296.269 302.952 296.489 302.99 296.698 303.066C296.906 303.142 297.085 303.252 297.235 303.396C297.393 303.54 297.518 303.714 297.61 303.917C297.701 304.111 297.747 304.331 297.747 304.577C297.747 304.89 297.697 305.165 297.597 305.402C297.505 305.639 297.364 305.859 297.172 306.062C296.989 306.265 296.756 306.468 296.473 306.671C296.19 306.866 295.861 307.082 295.486 307.319C295.178 307.505 294.882 307.704 294.599 307.915C294.316 308.127 294.062 308.372 293.837 308.652C293.612 308.931 293.425 309.261 293.275 309.642C293.133 310.014 293.042 310.467 293 311H298.784V310.048H294.237C294.287 309.769 294.391 309.523 294.549 309.312C294.716 309.092 294.911 308.889 295.136 308.702C295.369 308.516 295.623 308.343 295.898 308.182C296.173 308.013 296.448 307.843 296.723 307.674C296.997 307.496 297.264 307.31 297.522 307.116C297.78 306.921 298.009 306.705 298.209 306.468C298.409 306.223 298.567 305.948 298.684 305.643C298.809 305.339 298.871 304.987 298.871 304.59C298.871 304.166 298.796 303.794 298.646 303.472C298.505 303.151 298.309 302.884 298.059 302.673C297.809 302.453 297.514 302.288 297.172 302.178C296.839 302.059 296.481 302 296.098 302C295.632 302 295.215 302.08 294.849 302.241C294.482 302.402 294.174 302.626 293.924 302.914C293.683 303.193 293.504 303.528 293.387 303.917C293.271 304.306 293.225 304.729 293.25 305.186Z"
              fill="#97A0AF"/>
        <path d="M306 303.079V302.152H300.266V303.168H304.913C304.447 303.667 304.01 304.213 303.602 304.805C303.202 305.398 302.848 306.028 302.54 306.697C302.232 307.357 301.978 308.051 301.778 308.779C301.586 309.498 301.465 310.238 301.415 311H302.602C302.644 310.298 302.76 309.574 302.952 308.829C303.143 308.085 303.389 307.361 303.689 306.659C303.997 305.956 304.347 305.296 304.738 304.678C305.13 304.061 305.55 303.528 306 303.079Z"
              fill="#97A0AF"/>
        <path d="M260.228 305.137H261.199C261.192 304.871 261.214 304.608 261.268 304.35C261.329 304.083 261.424 303.846 261.553 303.638C261.683 303.429 261.846 303.262 262.044 303.138C262.25 303.004 262.494 302.938 262.775 302.938C262.989 302.938 263.19 302.975 263.381 303.05C263.571 303.125 263.735 303.233 263.872 303.375C264.017 303.517 264.131 303.688 264.214 303.888C264.298 304.079 264.34 304.296 264.34 304.537C264.34 304.846 264.294 305.117 264.203 305.35C264.119 305.583 263.99 305.8 263.815 306C263.647 306.2 263.434 306.4 263.175 306.6C262.916 306.792 262.615 307.004 262.273 307.237C261.991 307.421 261.721 307.617 261.462 307.825C261.203 308.033 260.971 308.275 260.765 308.55C260.56 308.825 260.388 309.15 260.251 309.525C260.122 309.892 260.038 310.337 260 310.863H265.288V309.925H261.131C261.176 309.65 261.272 309.408 261.416 309.2C261.569 308.983 261.747 308.783 261.953 308.6C262.166 308.417 262.398 308.246 262.65 308.088C262.901 307.921 263.152 307.754 263.404 307.588C263.655 307.412 263.898 307.229 264.135 307.037C264.371 306.846 264.58 306.633 264.763 306.4C264.945 306.158 265.09 305.887 265.197 305.587C265.311 305.287 265.368 304.942 265.368 304.55C265.368 304.133 265.3 303.767 265.162 303.45C265.033 303.133 264.854 302.871 264.626 302.663C264.397 302.446 264.127 302.283 263.815 302.175C263.51 302.058 263.183 302 262.832 302C262.406 302 262.025 302.079 261.69 302.237C261.355 302.396 261.074 302.617 260.845 302.9C260.624 303.175 260.461 303.504 260.354 303.888C260.247 304.271 260.206 304.687 260.228 305.137Z"
              fill="#97A0AF"/>
        <path d="M270.801 304.263H271.772C271.711 303.529 271.482 302.971 271.086 302.587C270.69 302.196 270.157 302 269.487 302C268.909 302 268.429 302.133 268.048 302.4C267.668 302.667 267.363 303.021 267.135 303.463C266.906 303.904 266.742 304.412 266.643 304.987C266.552 305.554 266.506 306.142 266.506 306.75C266.506 307.217 266.537 307.7 266.598 308.2C266.666 308.7 266.799 309.158 266.997 309.575C267.195 309.992 267.477 310.333 267.843 310.6C268.208 310.867 268.692 311 269.293 311C269.803 311 270.23 310.908 270.572 310.725C270.923 310.533 271.201 310.296 271.406 310.012C271.619 309.721 271.772 309.4 271.863 309.05C271.954 308.7 272 308.362 272 308.037C272 307.629 271.943 307.25 271.829 306.9C271.714 306.55 271.551 306.246 271.338 305.988C271.132 305.729 270.873 305.529 270.561 305.387C270.256 305.237 269.91 305.162 269.522 305.162C269.08 305.162 268.688 305.254 268.345 305.438C268.01 305.621 267.728 305.917 267.5 306.325L267.477 306.3C267.485 305.958 267.515 305.592 267.569 305.2C267.622 304.808 267.717 304.446 267.854 304.112C267.999 303.771 268.197 303.492 268.448 303.275C268.699 303.05 269.03 302.938 269.442 302.938C269.83 302.938 270.142 303.058 270.378 303.3C270.614 303.542 270.755 303.862 270.801 304.263ZM269.339 306.1C269.613 306.1 269.853 306.154 270.058 306.262C270.264 306.371 270.435 306.517 270.572 306.7C270.709 306.875 270.808 307.088 270.869 307.338C270.938 307.579 270.972 307.838 270.972 308.113C270.972 308.371 270.934 308.621 270.858 308.863C270.789 309.096 270.687 309.304 270.549 309.488C270.412 309.671 270.241 309.817 270.036 309.925C269.838 310.025 269.605 310.075 269.339 310.075C269.072 310.075 268.832 310.025 268.619 309.925C268.414 309.817 268.239 309.675 268.094 309.5C267.957 309.325 267.85 309.117 267.774 308.875C267.698 308.633 267.66 308.375 267.66 308.1C267.66 307.825 267.694 307.567 267.763 307.325C267.839 307.075 267.949 306.863 268.094 306.688C268.239 306.504 268.414 306.363 268.619 306.262C268.825 306.154 269.065 306.1 269.339 306.1Z"
              fill="#97A0AF"/>
        <path d="M226.231 305.137H227.211C227.203 304.871 227.226 304.608 227.28 304.35C227.341 304.083 227.438 303.846 227.568 303.638C227.699 303.429 227.864 303.262 228.064 303.138C228.272 303.004 228.518 302.938 228.802 302.938C229.017 302.938 229.221 302.975 229.413 303.05C229.605 303.125 229.771 303.233 229.909 303.375C230.055 303.517 230.17 303.688 230.255 303.888C230.34 304.079 230.382 304.296 230.382 304.537C230.382 304.846 230.336 305.117 230.243 305.35C230.159 305.583 230.028 305.8 229.851 306C229.682 306.2 229.467 306.4 229.206 306.6C228.944 306.792 228.641 307.004 228.295 307.237C228.01 307.421 227.737 307.617 227.476 307.825C227.215 308.033 226.98 308.275 226.773 308.55C226.565 308.825 226.392 309.15 226.254 309.525C226.123 309.892 226.038 310.337 226 310.863H231.339V309.925H227.142C227.188 309.65 227.284 309.408 227.43 309.2C227.584 308.983 227.764 308.783 227.972 308.6C228.187 308.417 228.422 308.246 228.675 308.088C228.929 307.921 229.183 307.754 229.436 307.588C229.69 307.412 229.936 307.229 230.174 307.037C230.413 306.846 230.624 306.633 230.808 306.4C230.993 306.158 231.139 305.887 231.247 305.587C231.362 305.287 231.42 304.942 231.42 304.55C231.42 304.133 231.35 303.767 231.212 303.45C231.081 303.133 230.901 302.871 230.67 302.663C230.439 302.446 230.167 302.283 229.851 302.175C229.544 302.058 229.213 302 228.86 302C228.429 302 228.045 302.079 227.707 302.237C227.368 302.396 227.084 302.617 226.853 302.9C226.63 303.175 226.465 303.504 226.357 303.888C226.25 304.271 226.208 304.687 226.231 305.137Z"
              fill="#97A0AF"/>
        <path d="M237.55 303.087V302.15H233.514L232.753 306.75L233.595 306.8C233.787 306.55 234.006 306.35 234.252 306.2C234.506 306.042 234.794 305.962 235.117 305.962C235.394 305.962 235.644 306.013 235.867 306.113C236.097 306.213 236.293 306.354 236.455 306.537C236.616 306.712 236.739 306.925 236.824 307.175C236.916 307.417 236.962 307.683 236.962 307.975C236.962 308.325 236.916 308.633 236.824 308.9C236.732 309.158 236.605 309.375 236.443 309.55C236.29 309.725 236.105 309.858 235.89 309.95C235.682 310.033 235.463 310.075 235.233 310.075C234.987 310.075 234.76 310.037 234.552 309.962C234.352 309.879 234.176 309.767 234.022 309.625C233.876 309.475 233.757 309.304 233.664 309.113C233.58 308.912 233.53 308.7 233.514 308.475H232.534C232.542 308.875 232.615 309.233 232.753 309.55C232.892 309.867 233.08 310.133 233.318 310.35C233.557 310.558 233.83 310.721 234.137 310.837C234.452 310.946 234.787 311 235.14 311C235.617 311 236.032 310.921 236.386 310.762C236.747 310.596 237.047 310.375 237.285 310.1C237.523 309.825 237.7 309.512 237.816 309.162C237.939 308.804 238 308.438 238 308.063C238 307.554 237.931 307.112 237.792 306.737C237.654 306.354 237.466 306.038 237.227 305.788C236.989 305.529 236.709 305.338 236.386 305.213C236.063 305.088 235.721 305.025 235.359 305.025C235.083 305.025 234.802 305.079 234.518 305.188C234.241 305.287 234.014 305.446 233.837 305.662L233.814 305.638L234.252 303.087H237.55Z"
              fill="#97A0AF"/>
        <path d="M192.229 305.186H193.204C193.196 304.915 193.219 304.649 193.273 304.386C193.334 304.116 193.429 303.874 193.559 303.663C193.689 303.451 193.854 303.282 194.052 303.155C194.259 303.02 194.503 302.952 194.786 302.952C195 302.952 195.203 302.99 195.394 303.066C195.585 303.142 195.749 303.252 195.887 303.396C196.032 303.54 196.147 303.714 196.231 303.917C196.315 304.111 196.357 304.331 196.357 304.577C196.357 304.89 196.311 305.165 196.219 305.402C196.135 305.639 196.005 305.859 195.829 306.062C195.661 306.265 195.447 306.468 195.187 306.671C194.927 306.866 194.625 307.082 194.282 307.319C193.999 307.505 193.727 307.704 193.468 307.915C193.208 308.127 192.975 308.372 192.768 308.652C192.562 308.931 192.39 309.261 192.252 309.642C192.122 310.014 192.038 310.467 192 311H197.308V310.048H193.135C193.181 309.769 193.276 309.523 193.422 309.312C193.575 309.092 193.754 308.889 193.961 308.702C194.175 308.516 194.408 308.343 194.66 308.182C194.912 308.013 195.164 307.843 195.417 307.674C195.669 307.496 195.913 307.31 196.15 307.116C196.387 306.921 196.597 306.705 196.781 306.468C196.964 306.223 197.11 305.948 197.217 305.643C197.331 305.339 197.389 304.987 197.389 304.59C197.389 304.166 197.32 303.794 197.182 303.472C197.052 303.151 196.873 302.884 196.643 302.673C196.414 302.453 196.143 302.288 195.829 302.178C195.524 302.059 195.195 302 194.843 302C194.415 302 194.033 302.08 193.697 302.241C193.361 302.402 193.078 302.626 192.848 302.914C192.627 303.193 192.462 303.528 192.355 303.917C192.248 304.306 192.206 304.729 192.229 305.186Z"
              fill="#97A0AF"/>
        <path d="M201.982 307.941H199.253L201.959 303.536H201.982V307.941ZM202.899 307.941V302H202.12L198.417 307.852V308.893H201.982V311H202.899V308.893H204V307.941H202.899Z"
              fill="#97A0AF"/>
        <path d="M158.25 305.137H159.31C159.302 304.871 159.327 304.608 159.385 304.35C159.452 304.083 159.556 303.846 159.697 303.638C159.839 303.429 160.018 303.262 160.234 303.138C160.459 303.004 160.725 302.938 161.033 302.938C161.266 302.938 161.486 302.975 161.694 303.05C161.902 303.125 162.081 303.233 162.231 303.375C162.389 303.517 162.514 303.688 162.605 303.888C162.697 304.079 162.742 304.296 162.742 304.537C162.742 304.846 162.692 305.117 162.593 305.35C162.501 305.583 162.36 305.8 162.168 306C161.985 306.2 161.752 306.4 161.469 306.6C161.187 306.792 160.858 307.004 160.484 307.237C160.176 307.421 159.88 307.617 159.597 307.825C159.315 308.033 159.061 308.275 158.836 308.55C158.612 308.825 158.424 309.15 158.275 309.525C158.133 309.892 158.042 310.337 158 310.863H163.778V309.925H159.236C159.285 309.65 159.389 309.408 159.548 309.2C159.714 308.983 159.909 308.783 160.134 308.6C160.367 308.417 160.621 308.246 160.895 308.088C161.17 307.921 161.444 307.754 161.719 307.588C161.994 307.412 162.26 307.229 162.518 307.037C162.776 306.846 163.004 306.633 163.204 306.4C163.404 306.158 163.562 305.887 163.678 305.587C163.803 305.287 163.866 304.942 163.866 304.55C163.866 304.133 163.791 303.767 163.641 303.45C163.5 303.133 163.304 302.871 163.054 302.663C162.805 302.446 162.509 302.283 162.168 302.175C161.836 302.058 161.478 302 161.095 302C160.629 302 160.213 302.079 159.847 302.237C159.481 302.396 159.173 302.617 158.924 302.9C158.682 303.175 158.503 303.504 158.387 303.888C158.27 304.271 158.225 304.687 158.25 305.137Z"
              fill="#97A0AF"/>
        <path d="M167.356 305.8V306.7C167.556 306.675 167.768 306.662 167.992 306.662C168.259 306.662 168.504 306.7 168.729 306.775C168.962 306.842 169.161 306.95 169.328 307.1C169.494 307.242 169.627 307.421 169.727 307.637C169.827 307.846 169.877 308.087 169.877 308.362C169.877 308.629 169.823 308.871 169.715 309.088C169.615 309.296 169.477 309.475 169.303 309.625C169.128 309.767 168.924 309.879 168.691 309.962C168.458 310.037 168.213 310.075 167.955 310.075C167.348 310.075 166.886 309.896 166.57 309.537C166.253 309.171 166.087 308.7 166.07 308.125H165.01C165.001 308.583 165.064 308.992 165.197 309.35C165.338 309.708 165.538 310.012 165.796 310.262C166.054 310.504 166.366 310.688 166.732 310.812C167.098 310.938 167.506 311 167.955 311C168.371 311 168.762 310.946 169.128 310.837C169.502 310.721 169.827 310.55 170.101 310.325C170.376 310.1 170.592 309.821 170.75 309.488C170.917 309.146 171 308.754 171 308.312C171 307.779 170.867 307.317 170.601 306.925C170.343 306.533 169.943 306.279 169.403 306.162V306.137C169.752 305.979 170.043 305.746 170.276 305.438C170.509 305.129 170.626 304.775 170.626 304.375C170.626 303.967 170.555 303.613 170.413 303.313C170.28 303.013 170.093 302.767 169.852 302.575C169.611 302.383 169.324 302.242 168.991 302.15C168.666 302.05 168.313 302 167.93 302C167.489 302 167.098 302.071 166.757 302.213C166.424 302.354 166.145 302.55 165.921 302.8C165.696 303.05 165.521 303.35 165.396 303.7C165.28 304.05 165.213 304.438 165.197 304.863H166.258C166.258 304.604 166.291 304.358 166.357 304.125C166.424 303.892 166.524 303.688 166.657 303.513C166.798 303.338 166.973 303.2 167.181 303.1C167.397 302.992 167.647 302.938 167.93 302.938C168.379 302.938 168.754 303.058 169.053 303.3C169.353 303.533 169.502 303.887 169.502 304.362C169.502 304.596 169.457 304.804 169.365 304.987C169.274 305.171 169.149 305.325 168.991 305.45C168.841 305.567 168.662 305.658 168.454 305.725C168.254 305.783 168.042 305.812 167.818 305.812H167.593C167.551 305.812 167.51 305.812 167.468 305.812C167.435 305.812 167.397 305.808 167.356 305.8Z"
              fill="#97A0AF"/>
        <path d="M125.234 305.186H126.228C126.221 304.915 126.244 304.649 126.299 304.386C126.361 304.116 126.459 303.874 126.591 303.663C126.724 303.451 126.891 303.282 127.094 303.155C127.305 303.02 127.554 302.952 127.843 302.952C128.061 302.952 128.268 302.99 128.463 303.066C128.658 303.142 128.826 303.252 128.966 303.396C129.114 303.54 129.231 303.714 129.317 303.917C129.403 304.111 129.446 304.331 129.446 304.577C129.446 304.89 129.399 305.165 129.306 305.402C129.22 305.639 129.087 305.859 128.908 306.062C128.736 306.265 128.518 306.468 128.253 306.671C127.987 306.866 127.679 307.082 127.328 307.319C127.04 307.505 126.763 307.704 126.498 307.915C126.232 308.127 125.994 308.372 125.784 308.652C125.573 308.931 125.398 309.261 125.257 309.642C125.125 310.014 125.039 310.467 125 311H130.417V310.048H126.158C126.205 309.769 126.303 309.523 126.451 309.312C126.607 309.092 126.79 308.889 127.001 308.702C127.219 308.516 127.457 308.343 127.714 308.182C127.972 308.013 128.229 307.843 128.487 307.674C128.744 307.496 128.994 307.31 129.235 307.116C129.477 306.921 129.692 306.705 129.879 306.468C130.066 306.223 130.214 305.948 130.323 305.643C130.44 305.339 130.499 304.987 130.499 304.59C130.499 304.166 130.429 303.794 130.288 303.472C130.156 303.151 129.972 302.884 129.738 302.673C129.504 302.453 129.228 302.288 128.908 302.178C128.596 302.059 128.26 302 127.902 302C127.465 302 127.075 302.08 126.732 302.241C126.388 302.402 126.1 302.626 125.866 302.914C125.64 303.193 125.472 303.528 125.363 303.917C125.253 304.306 125.211 304.729 125.234 305.186Z"
              fill="#97A0AF"/>
        <path d="M131.735 305.186H132.73C132.722 304.915 132.745 304.649 132.8 304.386C132.862 304.116 132.96 303.874 133.092 303.663C133.225 303.451 133.393 303.282 133.595 303.155C133.806 303.02 134.056 302.952 134.344 302.952C134.563 302.952 134.769 302.99 134.964 303.066C135.159 303.142 135.327 303.252 135.467 303.396C135.616 303.54 135.733 303.714 135.818 303.917C135.904 304.111 135.947 304.331 135.947 304.577C135.947 304.89 135.9 305.165 135.807 305.402C135.721 305.639 135.588 305.859 135.409 306.062C135.237 306.265 135.019 306.468 134.754 306.671C134.488 306.866 134.18 307.082 133.829 307.319C133.541 307.505 133.264 307.704 132.999 307.915C132.733 308.127 132.496 308.372 132.285 308.652C132.074 308.931 131.899 309.261 131.759 309.642C131.626 310.014 131.54 310.467 131.501 311H136.918V310.048H132.659C132.706 309.769 132.804 309.523 132.952 309.312C133.108 309.092 133.291 308.889 133.502 308.702C133.72 308.516 133.958 308.343 134.215 308.182C134.473 308.013 134.73 307.843 134.988 307.674C135.245 307.496 135.495 307.31 135.736 307.116C135.978 306.921 136.193 306.705 136.38 306.468C136.567 306.223 136.715 305.948 136.825 305.643C136.942 305.339 137 304.987 137 304.59C137 304.166 136.93 303.794 136.789 303.472C136.657 303.151 136.474 302.884 136.24 302.673C136.006 302.453 135.729 302.288 135.409 302.178C135.097 302.059 134.761 302 134.403 302C133.966 302 133.576 302.08 133.233 302.241C132.889 302.402 132.601 302.626 132.367 302.914C132.141 303.193 131.973 303.528 131.864 303.917C131.755 304.306 131.712 304.729 131.735 305.186Z"
              fill="#97A0AF"/>
        <path d="M327.225 271.832H328.183C328.175 271.591 328.198 271.354 328.25 271.121C328.311 270.881 328.404 270.666 328.532 270.478C328.66 270.29 328.821 270.14 329.017 270.027C329.219 269.906 329.46 269.846 329.738 269.846C329.948 269.846 330.147 269.88 330.335 269.948C330.522 270.016 330.684 270.113 330.819 270.241C330.962 270.369 331.074 270.523 331.157 270.704C331.24 270.877 331.281 271.072 331.281 271.291C331.281 271.569 331.236 271.813 331.146 272.024C331.063 272.235 330.935 272.43 330.763 272.611C330.597 272.791 330.387 272.972 330.132 273.152C329.876 273.325 329.58 273.517 329.242 273.728C328.964 273.893 328.697 274.07 328.442 274.258C328.187 274.446 327.958 274.664 327.755 274.913C327.552 275.161 327.383 275.454 327.248 275.793C327.12 276.124 327.038 276.526 327 277H332.216V276.154H328.115C328.16 275.906 328.254 275.687 328.397 275.499C328.547 275.304 328.724 275.123 328.926 274.958C329.137 274.792 329.366 274.638 329.614 274.495C329.861 274.345 330.109 274.194 330.357 274.044C330.605 273.886 330.845 273.72 331.078 273.547C331.311 273.374 331.517 273.182 331.698 272.972C331.878 272.754 332.021 272.509 332.126 272.238C332.238 271.968 332.295 271.655 332.295 271.302C332.295 270.926 332.227 270.595 332.092 270.309C331.964 270.023 331.788 269.786 331.563 269.598C331.337 269.402 331.071 269.256 330.763 269.158C330.462 269.053 330.139 269 329.794 269C329.373 269 328.998 269.071 328.667 269.214C328.337 269.357 328.059 269.557 327.834 269.812C327.616 270.061 327.454 270.358 327.349 270.704C327.244 271.05 327.203 271.426 327.225 271.832Z"
              fill="#97A0AF"/>
        <path d="M337 277V269H336.268C336.215 269.301 336.118 269.549 335.975 269.745C335.832 269.94 335.656 270.094 335.445 270.207C335.243 270.32 335.014 270.399 334.758 270.444C334.503 270.482 334.24 270.501 333.97 270.501V271.268H336.042V277H337Z"
              fill="#97A0AF"/>
        <path d="M293.249 271.789H294.305C294.297 271.552 294.322 271.319 294.38 271.089C294.446 270.852 294.55 270.641 294.691 270.456C294.832 270.27 295.01 270.122 295.225 270.011C295.449 269.893 295.714 269.833 296.021 269.833C296.253 269.833 296.473 269.867 296.68 269.933C296.887 270 297.065 270.096 297.215 270.222C297.372 270.348 297.496 270.5 297.588 270.678C297.679 270.848 297.724 271.041 297.724 271.256C297.724 271.53 297.675 271.77 297.575 271.978C297.484 272.185 297.343 272.378 297.152 272.556C296.97 272.733 296.738 272.911 296.456 273.089C296.174 273.259 295.847 273.448 295.474 273.656C295.167 273.819 294.873 273.993 294.591 274.178C294.31 274.363 294.057 274.578 293.833 274.822C293.609 275.067 293.423 275.356 293.274 275.689C293.133 276.015 293.041 276.411 293 276.878H298.756V276.044H294.231C294.281 275.8 294.384 275.585 294.542 275.4C294.707 275.207 294.902 275.03 295.126 274.867C295.358 274.704 295.611 274.552 295.884 274.411C296.158 274.263 296.431 274.115 296.705 273.967C296.978 273.811 297.244 273.648 297.5 273.478C297.757 273.307 297.985 273.119 298.184 272.911C298.383 272.696 298.541 272.456 298.657 272.189C298.781 271.922 298.843 271.615 298.843 271.267C298.843 270.896 298.769 270.57 298.619 270.289C298.478 270.007 298.284 269.774 298.035 269.589C297.786 269.396 297.492 269.252 297.152 269.156C296.821 269.052 296.464 269 296.083 269C295.619 269 295.205 269.07 294.84 269.211C294.475 269.352 294.169 269.548 293.92 269.8C293.68 270.044 293.501 270.337 293.385 270.678C293.269 271.019 293.224 271.389 293.249 271.789Z"
              fill="#97A0AF"/>
        <path d="M301.251 273C301.251 272.807 301.251 272.596 301.251 272.367C301.259 272.13 301.28 271.896 301.313 271.667C301.354 271.43 301.408 271.2 301.475 270.978C301.549 270.756 301.653 270.563 301.785 270.4C301.926 270.23 302.1 270.093 302.308 269.989C302.515 269.885 302.768 269.833 303.066 269.833C303.364 269.833 303.617 269.885 303.824 269.989C304.032 270.093 304.201 270.23 304.334 270.4C304.475 270.563 304.579 270.756 304.645 270.978C304.719 271.2 304.773 271.43 304.807 271.667C304.848 271.896 304.869 272.13 304.869 272.367C304.877 272.596 304.881 272.807 304.881 273C304.881 273.296 304.869 273.63 304.844 274C304.827 274.363 304.761 274.707 304.645 275.033C304.537 275.352 304.359 275.622 304.11 275.844C303.862 276.067 303.514 276.178 303.066 276.178C302.618 276.178 302.27 276.067 302.022 275.844C301.773 275.622 301.591 275.352 301.475 275.033C301.367 274.707 301.301 274.363 301.276 274C301.259 273.63 301.251 273.296 301.251 273ZM300.132 273.011C300.132 273.3 300.14 273.6 300.157 273.911C300.173 274.222 300.215 274.526 300.281 274.822C300.347 275.119 300.443 275.4 300.567 275.667C300.691 275.926 300.861 276.156 301.077 276.356C301.292 276.556 301.562 276.715 301.885 276.833C302.216 276.944 302.61 277 303.066 277C303.53 277 303.924 276.944 304.247 276.833C304.57 276.715 304.84 276.556 305.055 276.356C305.271 276.156 305.441 275.926 305.565 275.667C305.689 275.4 305.785 275.119 305.851 274.822C305.917 274.526 305.959 274.222 305.975 273.911C305.992 273.6 306 273.3 306 273.011C306 272.722 305.992 272.422 305.975 272.111C305.959 271.8 305.917 271.496 305.851 271.2C305.785 270.904 305.689 270.622 305.565 270.356C305.441 270.089 305.271 269.856 305.055 269.656C304.84 269.456 304.566 269.296 304.235 269.178C303.911 269.059 303.522 269 303.066 269C302.61 269 302.216 269.059 301.885 269.178C301.562 269.296 301.292 269.456 301.077 269.656C300.861 269.856 300.691 270.089 300.567 270.356C300.443 270.622 300.347 270.904 300.281 271.2C300.215 271.496 300.173 271.8 300.157 272.111C300.14 272.422 300.132 272.722 300.132 273.011Z"
              fill="#97A0AF"/>
        <path d="M263.298 276.878V269H262.501C262.444 269.296 262.338 269.541 262.183 269.733C262.027 269.926 261.835 270.078 261.606 270.189C261.386 270.3 261.136 270.378 260.858 270.422C260.58 270.459 260.294 270.478 260 270.478V271.233H262.256V276.878H263.298Z"
              fill="#97A0AF"/>
        <path d="M267.39 274.978H266.347C266.413 275.659 266.687 276.167 267.169 276.5C267.651 276.833 268.256 277 268.984 277C270.038 277 270.802 276.637 271.277 275.911C271.759 275.178 272 274.13 272 272.767C272 272.019 271.918 271.404 271.755 270.922C271.599 270.433 271.387 270.048 271.117 269.767C270.847 269.485 270.533 269.289 270.173 269.178C269.813 269.059 269.429 269 269.02 269C268.604 269 268.219 269.063 267.868 269.189C267.516 269.315 267.214 269.493 266.96 269.722C266.707 269.944 266.511 270.215 266.372 270.533C266.233 270.844 266.163 271.189 266.163 271.567C266.163 271.952 266.221 272.307 266.335 272.633C266.458 272.959 266.634 273.237 266.862 273.467C267.099 273.696 267.39 273.878 267.733 274.011C268.076 274.137 268.469 274.2 268.91 274.2C269.335 274.2 269.728 274.104 270.087 273.911C270.447 273.711 270.725 273.444 270.921 273.111L270.946 273.133C270.913 274.163 270.737 274.93 270.418 275.433C270.099 275.93 269.621 276.178 268.984 276.178C268.567 276.178 268.207 276.074 267.905 275.867C267.602 275.659 267.431 275.363 267.39 274.978ZM270.762 271.633C270.762 271.863 270.721 272.085 270.639 272.3C270.557 272.507 270.439 272.693 270.283 272.856C270.128 273.011 269.94 273.137 269.719 273.233C269.499 273.322 269.253 273.367 268.984 273.367C268.73 273.367 268.497 273.322 268.285 273.233C268.08 273.137 267.901 273.011 267.745 272.856C267.598 272.7 267.48 272.522 267.39 272.322C267.308 272.122 267.267 271.915 267.267 271.7C267.267 271.456 267.296 271.222 267.353 271C267.418 270.778 267.516 270.581 267.647 270.411C267.786 270.233 267.962 270.093 268.174 269.989C268.395 269.885 268.661 269.833 268.971 269.833C269.266 269.833 269.523 269.881 269.744 269.978C269.965 270.074 270.148 270.207 270.296 270.378C270.451 270.541 270.565 270.73 270.639 270.944C270.721 271.159 270.762 271.389 270.762 271.633Z"
              fill="#97A0AF"/>
        <path d="M230.005 276.878V269H229.279C229.227 269.296 229.13 269.541 228.988 269.733C228.847 269.926 228.672 270.078 228.463 270.189C228.262 270.3 228.035 270.378 227.782 270.422C227.529 270.459 227.268 270.478 227 270.478V271.233H229.056V276.878H230.005Z"
              fill="white"/>
        <path d="M233.967 271.044C233.967 270.844 234.004 270.67 234.079 270.522C234.153 270.374 234.25 270.248 234.369 270.144C234.496 270.041 234.645 269.963 234.816 269.911C234.987 269.859 235.166 269.833 235.352 269.833C235.74 269.833 236.056 269.937 236.302 270.144C236.555 270.344 236.682 270.644 236.682 271.044C236.682 271.444 236.559 271.756 236.313 271.978C236.067 272.2 235.755 272.311 235.375 272.311C235.181 272.311 234.999 272.285 234.827 272.233C234.656 272.181 234.507 272.104 234.38 272C234.254 271.896 234.153 271.767 234.079 271.611C234.004 271.448 233.967 271.259 233.967 271.044ZM232.962 271.011C232.962 271.367 233.062 271.696 233.263 272C233.464 272.296 233.733 272.511 234.068 272.644C233.621 272.8 233.278 273.052 233.04 273.4C232.802 273.741 232.682 274.144 232.682 274.611C232.682 275.011 232.749 275.363 232.884 275.667C233.025 275.963 233.215 276.211 233.453 276.411C233.699 276.611 233.986 276.759 234.313 276.856C234.641 276.952 234.995 277 235.375 277C235.74 277 236.082 276.948 236.403 276.844C236.723 276.741 236.998 276.589 237.229 276.389C237.467 276.181 237.654 275.93 237.788 275.633C237.929 275.337 238 274.996 238 274.611C238 274.122 237.885 273.711 237.654 273.378C237.423 273.037 237.069 272.793 236.592 272.644C236.928 272.496 237.192 272.278 237.386 271.989C237.587 271.693 237.687 271.367 237.687 271.011C237.687 270.759 237.643 270.515 237.553 270.278C237.464 270.033 237.322 269.819 237.129 269.633C236.942 269.441 236.697 269.289 236.391 269.178C236.086 269.059 235.717 269 235.285 269C234.98 269 234.686 269.044 234.403 269.133C234.127 269.222 233.882 269.352 233.666 269.522C233.45 269.693 233.278 269.904 233.152 270.156C233.025 270.4 232.962 270.685 232.962 271.011ZM233.688 274.656C233.688 274.426 233.729 274.219 233.811 274.033C233.9 273.848 234.019 273.689 234.168 273.556C234.325 273.422 234.503 273.322 234.704 273.256C234.913 273.181 235.133 273.144 235.364 273.144C235.587 273.144 235.796 273.185 235.989 273.267C236.19 273.341 236.365 273.444 236.514 273.578C236.663 273.711 236.779 273.87 236.861 274.056C236.95 274.233 236.995 274.43 236.995 274.644C236.995 274.867 236.954 275.07 236.872 275.256C236.797 275.441 236.686 275.604 236.537 275.744C236.395 275.878 236.224 275.985 236.023 276.067C235.829 276.141 235.613 276.178 235.375 276.178C234.883 276.178 234.477 276.044 234.157 275.778C233.844 275.504 233.688 275.13 233.688 274.656Z"
              fill="white"/>
        <path d="M196.027 277V269H195.295C195.243 269.301 195.145 269.549 195.003 269.745C194.86 269.94 194.684 270.094 194.474 270.207C194.271 270.32 194.043 270.399 193.788 270.444C193.533 270.482 193.27 270.501 193 270.501V271.268H195.07V277H196.027Z"
              fill="#298FCA"/>
        <path d="M204 269.959V269.135H198.836V270.038H203.021C202.601 270.482 202.207 270.967 201.84 271.494C201.48 272.02 201.161 272.581 200.883 273.175C200.606 273.762 200.377 274.378 200.197 275.025C200.025 275.665 199.916 276.323 199.871 277H200.94C200.977 276.376 201.082 275.732 201.255 275.071C201.427 274.409 201.648 273.765 201.919 273.141C202.196 272.517 202.511 271.93 202.864 271.381C203.216 270.832 203.595 270.358 204 269.959Z"
              fill="#298FCA"/>
        <path d="M196.027 277V269H195.295C195.243 269.301 195.145 269.549 195.003 269.745C194.86 269.94 194.684 270.094 194.474 270.207C194.271 270.32 194.043 270.399 193.788 270.444C193.533 270.482 193.27 270.501 193 270.501V271.268H195.07V277H196.027Z"
              stroke="#298FCA" stroke-width="0.5"/>
        <path d="M204 269.959V269.135H198.836V270.038H203.021C202.601 270.482 202.207 270.967 201.84 271.494C201.48 272.02 201.161 272.581 200.883 273.175C200.606 273.762 200.377 274.378 200.197 275.025C200.025 275.665 199.916 276.323 199.871 277H200.94C200.977 276.376 201.082 275.732 201.255 275.071C201.427 274.409 201.648 273.765 201.919 273.141C202.196 272.517 202.511 271.93 202.864 271.381C203.216 270.832 203.595 270.358 204 269.959Z"
              stroke="#298FCA" stroke-width="0.5"/>
        <path d="M162.268 276.878V269H161.479C161.422 269.296 161.317 269.541 161.163 269.733C161.009 269.926 160.818 270.078 160.592 270.189C160.373 270.3 160.126 270.378 159.85 270.422C159.575 270.459 159.292 270.478 159 270.478V271.233H161.236V276.878H162.268Z"
              fill="#97A0AF"/>
        <path d="M169.724 271.011H170.757C170.692 270.359 170.449 269.863 170.028 269.522C169.607 269.174 169.04 269 168.327 269C167.711 269 167.201 269.119 166.796 269.356C166.391 269.593 166.067 269.907 165.824 270.3C165.581 270.693 165.407 271.144 165.302 271.656C165.205 272.159 165.156 272.681 165.156 273.222C165.156 273.637 165.188 274.067 165.253 274.511C165.326 274.956 165.468 275.363 165.678 275.733C165.889 276.104 166.189 276.407 166.577 276.644C166.966 276.881 167.481 277 168.12 277C168.663 277 169.117 276.919 169.481 276.756C169.854 276.585 170.15 276.374 170.368 276.122C170.595 275.863 170.757 275.578 170.854 275.267C170.951 274.956 171 274.656 171 274.367C171 274.004 170.939 273.667 170.818 273.356C170.696 273.044 170.522 272.774 170.295 272.544C170.077 272.315 169.801 272.137 169.469 272.011C169.145 271.878 168.777 271.811 168.363 271.811C167.894 271.811 167.477 271.893 167.112 272.056C166.756 272.219 166.456 272.481 166.213 272.844L166.189 272.822C166.197 272.519 166.229 272.193 166.286 271.844C166.343 271.496 166.444 271.174 166.59 270.878C166.743 270.574 166.954 270.326 167.221 270.133C167.489 269.933 167.841 269.833 168.278 269.833C168.692 269.833 169.024 269.941 169.275 270.156C169.526 270.37 169.676 270.656 169.724 271.011ZM168.169 272.644C168.461 272.644 168.716 272.693 168.935 272.789C169.153 272.885 169.335 273.015 169.481 273.178C169.627 273.333 169.732 273.522 169.797 273.744C169.87 273.959 169.907 274.189 169.907 274.433C169.907 274.663 169.866 274.885 169.785 275.1C169.712 275.307 169.603 275.493 169.457 275.656C169.311 275.819 169.129 275.948 168.91 276.044C168.7 276.133 168.453 276.178 168.169 276.178C167.886 276.178 167.63 276.133 167.404 276.044C167.185 275.948 166.999 275.822 166.845 275.667C166.699 275.511 166.586 275.326 166.505 275.111C166.424 274.896 166.383 274.667 166.383 274.422C166.383 274.178 166.419 273.948 166.492 273.733C166.573 273.511 166.691 273.322 166.845 273.167C166.999 273.004 167.185 272.878 167.404 272.789C167.622 272.693 167.877 272.644 168.169 272.644Z"
              fill="#97A0AF"/>
        <path d="M128.302 276.878V269H127.504C127.447 269.296 127.34 269.541 127.185 269.733C127.029 269.926 126.837 270.078 126.608 270.189C126.387 270.3 126.137 270.378 125.859 270.422C125.581 270.459 125.295 270.478 125 270.478V271.233H127.258V276.878H128.302Z"
              fill="#97A0AF"/>
        <path d="M136.521 269.967V269.133H132.225L131.415 273.222L132.311 273.267C132.516 273.044 132.749 272.867 133.011 272.733C133.281 272.593 133.588 272.522 133.931 272.522C134.226 272.522 134.492 272.567 134.729 272.656C134.975 272.744 135.183 272.87 135.355 273.033C135.527 273.189 135.658 273.378 135.748 273.6C135.846 273.815 135.895 274.052 135.895 274.311C135.895 274.622 135.846 274.896 135.748 275.133C135.65 275.363 135.515 275.556 135.343 275.711C135.179 275.867 134.983 275.985 134.754 276.067C134.533 276.141 134.3 276.178 134.054 276.178C133.792 276.178 133.551 276.144 133.33 276.078C133.117 276.004 132.929 275.904 132.765 275.778C132.61 275.644 132.483 275.493 132.385 275.322C132.295 275.144 132.242 274.956 132.225 274.756H131.182C131.19 275.111 131.268 275.43 131.415 275.711C131.563 275.993 131.763 276.23 132.017 276.422C132.27 276.607 132.561 276.752 132.888 276.856C133.224 276.952 133.58 277 133.956 277C134.463 277 134.905 276.93 135.282 276.789C135.666 276.641 135.985 276.444 136.239 276.2C136.493 275.956 136.681 275.678 136.804 275.367C136.935 275.048 137 274.722 137 274.389C137 273.937 136.926 273.544 136.779 273.211C136.632 272.87 136.431 272.589 136.178 272.367C135.924 272.137 135.625 271.967 135.282 271.856C134.938 271.744 134.574 271.689 134.189 271.689C133.895 271.689 133.596 271.737 133.293 271.833C132.999 271.922 132.757 272.063 132.569 272.256L132.544 272.233L133.011 269.967H136.521Z"
              fill="#97A0AF"/>
        <path d="M331.008 243V235H330.281C330.229 235.301 330.132 235.549 329.991 235.745C329.849 235.94 329.674 236.094 329.465 236.207C329.264 236.32 329.036 236.399 328.783 236.444C328.529 236.482 328.268 236.501 328 236.501V237.268H330.058V243H331.008Z"
              fill="#97A0AF"/>
        <path d="M337.032 240.281H334.37L337.009 236.365H337.032V240.281ZM337.926 240.281V235H337.166L333.554 240.202V241.127H337.032V243H337.926V241.127H339V240.281H337.926Z"
              fill="#97A0AF"/>
        <path d="M297.298 242.878V235H296.501C296.444 235.296 296.338 235.541 296.183 235.733C296.027 235.926 295.835 236.078 295.606 236.189C295.386 236.3 295.136 236.378 294.858 236.422C294.58 236.459 294.294 236.478 294 236.478V237.233H296.256V242.878H297.298Z"
              fill="#97A0AF"/>
        <path d="M302.42 238.378V239.178C302.616 239.156 302.824 239.144 303.045 239.144C303.307 239.144 303.548 239.178 303.768 239.244C303.997 239.304 304.193 239.4 304.357 239.533C304.52 239.659 304.651 239.819 304.749 240.011C304.847 240.196 304.896 240.411 304.896 240.656C304.896 240.893 304.843 241.107 304.737 241.3C304.639 241.485 304.504 241.644 304.332 241.778C304.161 241.904 303.96 242.004 303.732 242.078C303.503 242.144 303.262 242.178 303.008 242.178C302.411 242.178 301.958 242.019 301.647 241.7C301.336 241.374 301.173 240.956 301.157 240.444H300.114C300.106 240.852 300.168 241.215 300.298 241.533C300.437 241.852 300.634 242.122 300.887 242.344C301.14 242.559 301.447 242.722 301.807 242.833C302.166 242.944 302.567 243 303.008 243C303.417 243 303.801 242.952 304.161 242.856C304.529 242.752 304.847 242.6 305.117 242.4C305.387 242.2 305.599 241.952 305.755 241.656C305.918 241.352 306 241.004 306 240.611C306 240.137 305.869 239.726 305.608 239.378C305.354 239.03 304.962 238.804 304.431 238.7V238.678C304.774 238.537 305.06 238.33 305.289 238.056C305.518 237.781 305.632 237.467 305.632 237.111C305.632 236.748 305.563 236.433 305.424 236.167C305.293 235.9 305.109 235.681 304.872 235.511C304.635 235.341 304.353 235.215 304.026 235.133C303.707 235.044 303.36 235 302.984 235C302.55 235 302.166 235.063 301.831 235.189C301.504 235.315 301.23 235.489 301.01 235.711C300.789 235.933 300.617 236.2 300.495 236.511C300.38 236.822 300.315 237.167 300.298 237.544H301.341C301.341 237.315 301.373 237.096 301.439 236.889C301.504 236.681 301.602 236.5 301.733 236.344C301.872 236.189 302.044 236.067 302.248 235.978C302.46 235.881 302.706 235.833 302.984 235.833C303.425 235.833 303.793 235.941 304.087 236.156C304.381 236.363 304.529 236.678 304.529 237.1C304.529 237.307 304.484 237.493 304.394 237.656C304.304 237.819 304.181 237.956 304.026 238.067C303.879 238.17 303.703 238.252 303.499 238.311C303.302 238.363 303.094 238.389 302.873 238.389H302.653C302.612 238.389 302.571 238.389 302.53 238.389C302.497 238.389 302.46 238.385 302.42 238.378Z"
              fill="#97A0AF"/>
        <path d="M263.353 243V235H262.543C262.485 235.301 262.377 235.549 262.219 235.745C262.061 235.94 261.866 236.094 261.633 236.207C261.409 236.32 261.155 236.399 260.873 236.444C260.59 236.482 260.299 236.501 260 236.501V237.268H262.294V243H263.353Z"
              fill="#97A0AF"/>
        <path d="M266.391 237.832H267.45C267.442 237.591 267.467 237.354 267.525 237.121C267.591 236.881 267.695 236.666 267.837 236.478C267.978 236.29 268.156 236.14 268.373 236.027C268.597 235.906 268.863 235.846 269.17 235.846C269.403 235.846 269.623 235.88 269.831 235.948C270.039 236.016 270.217 236.113 270.367 236.241C270.525 236.369 270.65 236.523 270.741 236.704C270.832 236.877 270.878 237.072 270.878 237.291C270.878 237.569 270.828 237.813 270.729 238.024C270.637 238.235 270.496 238.43 270.305 238.611C270.122 238.791 269.889 238.972 269.607 239.152C269.324 239.325 268.996 239.517 268.622 239.728C268.314 239.893 268.019 240.07 267.737 240.258C267.454 240.446 267.201 240.664 266.976 240.913C266.752 241.161 266.565 241.454 266.415 241.793C266.274 242.124 266.183 242.526 266.141 243H271.913V242.154H267.375C267.425 241.906 267.529 241.687 267.687 241.499C267.853 241.304 268.048 241.123 268.273 240.958C268.506 240.792 268.759 240.638 269.033 240.495C269.307 240.345 269.582 240.194 269.856 240.044C270.13 239.886 270.396 239.72 270.654 239.547C270.911 239.374 271.14 239.182 271.339 238.972C271.539 238.754 271.697 238.509 271.813 238.238C271.938 237.968 272 237.655 272 237.302C272 236.926 271.925 236.595 271.776 236.309C271.634 236.023 271.439 235.786 271.19 235.598C270.94 235.402 270.645 235.256 270.305 235.158C269.972 235.053 269.615 235 269.233 235C268.767 235 268.352 235.071 267.986 235.214C267.62 235.357 267.313 235.557 267.064 235.812C266.823 236.061 266.644 236.358 266.528 236.704C266.411 237.05 266.366 237.426 266.391 237.832Z"
              fill="#97A0AF"/>
        <path d="M229.936 243V235H229.226C229.175 235.301 229.081 235.549 228.943 235.745C228.804 235.94 228.633 236.094 228.43 236.207C228.233 236.32 228.011 236.399 227.764 236.444C227.517 236.482 227.262 236.501 227 236.501V237.268H229.008V243H229.936Z"
              fill="#97A0AF"/>
        <path d="M236 243V235H235.291C235.24 235.301 235.145 235.549 235.007 235.745C234.869 235.94 234.698 236.094 234.494 236.207C234.297 236.32 234.076 236.399 233.828 236.444C233.581 236.482 233.326 236.501 233.064 236.501V237.268H235.072V243H236Z"
              fill="#97A0AF"/>
        <path d="M196.011 242.878V235H195.284C195.231 235.296 195.134 235.541 194.993 235.733C194.851 235.926 194.675 236.078 194.466 236.189C194.265 236.3 194.037 236.378 193.784 236.422C193.53 236.459 193.269 236.478 193 236.478V237.233H195.06V242.878H196.011Z"
              fill="#97A0AF"/>
        <path d="M199.724 239C199.724 238.807 199.724 238.596 199.724 238.367C199.731 238.13 199.75 237.896 199.78 237.667C199.817 237.43 199.866 237.2 199.925 236.978C199.993 236.756 200.086 236.563 200.205 236.4C200.332 236.23 200.489 236.093 200.675 235.989C200.862 235.885 201.09 235.833 201.358 235.833C201.627 235.833 201.854 235.885 202.041 235.989C202.228 236.093 202.381 236.23 202.5 236.4C202.627 236.563 202.72 236.756 202.78 236.978C202.847 237.2 202.896 237.43 202.925 237.667C202.963 237.896 202.981 238.13 202.981 238.367C202.989 238.596 202.993 238.807 202.993 239C202.993 239.296 202.981 239.63 202.959 240C202.944 240.363 202.884 240.707 202.78 241.033C202.683 241.352 202.522 241.622 202.299 241.844C202.075 242.067 201.761 242.178 201.358 242.178C200.955 242.178 200.642 242.067 200.418 241.844C200.194 241.622 200.03 241.352 199.925 241.033C199.828 240.707 199.769 240.363 199.746 240C199.731 239.63 199.724 239.296 199.724 239ZM198.716 239.011C198.716 239.3 198.724 239.6 198.739 239.911C198.754 240.222 198.791 240.526 198.851 240.822C198.91 241.119 198.996 241.4 199.108 241.667C199.22 241.926 199.373 242.156 199.567 242.356C199.761 242.556 200.004 242.715 200.295 242.833C200.593 242.944 200.948 243 201.358 243C201.776 243 202.131 242.944 202.422 242.833C202.713 242.715 202.955 242.556 203.149 242.356C203.343 242.156 203.496 241.926 203.608 241.667C203.72 241.4 203.806 241.119 203.866 240.822C203.925 240.526 203.963 240.222 203.978 239.911C203.993 239.6 204 239.3 204 239.011C204 238.722 203.993 238.422 203.978 238.111C203.963 237.8 203.925 237.496 203.866 237.2C203.806 236.904 203.72 236.622 203.608 236.356C203.496 236.089 203.343 235.856 203.149 235.656C202.955 235.456 202.709 235.296 202.41 235.178C202.119 235.059 201.769 235 201.358 235C200.948 235 200.593 235.059 200.295 235.178C200.004 235.296 199.761 235.456 199.567 235.656C199.373 235.856 199.22 236.089 199.108 236.356C198.996 236.622 198.91 236.904 198.851 237.2C198.791 237.496 198.754 237.8 198.739 238.111C198.724 238.422 198.716 238.722 198.716 239.011Z"
              fill="#97A0AF"/>
        <path d="M163.05 240.978H162.158C162.214 241.659 162.448 242.167 162.861 242.5C163.275 242.833 163.793 243 164.416 243C165.319 243 165.974 242.637 166.38 241.911C166.793 241.178 167 240.13 167 238.767C167 238.019 166.93 237.404 166.79 236.922C166.657 236.433 166.475 236.048 166.244 235.767C166.013 235.485 165.743 235.289 165.435 235.178C165.127 235.059 164.798 235 164.447 235C164.09 235 163.761 235.063 163.46 235.189C163.159 235.315 162.9 235.493 162.683 235.722C162.466 235.944 162.298 236.215 162.179 236.533C162.06 236.844 162 237.189 162 237.567C162 237.952 162.049 238.307 162.147 238.633C162.252 238.959 162.403 239.237 162.599 239.467C162.802 239.696 163.05 239.878 163.345 240.011C163.639 240.137 163.975 240.2 164.353 240.2C164.717 240.2 165.053 240.104 165.361 239.911C165.669 239.711 165.908 239.444 166.076 239.111L166.097 239.133C166.069 240.163 165.918 240.93 165.645 241.433C165.372 241.93 164.962 242.178 164.416 242.178C164.059 242.178 163.751 242.074 163.492 241.867C163.232 241.659 163.085 241.363 163.05 240.978ZM165.939 237.633C165.939 237.863 165.904 238.085 165.834 238.3C165.764 238.507 165.662 238.693 165.529 238.856C165.396 239.011 165.235 239.137 165.046 239.233C164.857 239.322 164.647 239.367 164.416 239.367C164.199 239.367 163.999 239.322 163.817 239.233C163.642 239.137 163.488 239.011 163.355 238.856C163.229 238.7 163.127 238.522 163.05 238.322C162.98 238.122 162.945 237.915 162.945 237.7C162.945 237.456 162.97 237.222 163.019 237C163.075 236.778 163.159 236.581 163.271 236.411C163.39 236.233 163.541 236.093 163.723 235.989C163.912 235.885 164.139 235.833 164.405 235.833C164.658 235.833 164.878 235.881 165.067 235.978C165.256 236.074 165.414 236.207 165.54 236.378C165.673 236.541 165.771 236.73 165.834 236.944C165.904 237.159 165.939 237.389 165.939 237.633Z"
              fill="#97A0AF"/>
        <path d="M129.45 237.044C129.45 236.844 129.492 236.67 129.576 236.522C129.66 236.374 129.769 236.248 129.903 236.144C130.046 236.041 130.214 235.963 130.408 235.911C130.601 235.859 130.803 235.833 131.013 235.833C131.45 235.833 131.807 235.937 132.084 236.144C132.37 236.344 132.513 236.644 132.513 237.044C132.513 237.444 132.374 237.756 132.097 237.978C131.819 238.2 131.466 238.311 131.038 238.311C130.819 238.311 130.613 238.285 130.42 238.233C130.227 238.181 130.059 238.104 129.916 238C129.773 237.896 129.66 237.767 129.576 237.611C129.492 237.448 129.45 237.259 129.45 237.044ZM128.315 237.011C128.315 237.367 128.429 237.696 128.655 238C128.882 238.296 129.185 238.511 129.563 238.644C129.059 238.8 128.672 239.052 128.403 239.4C128.134 239.741 128 240.144 128 240.611C128 241.011 128.076 241.363 128.227 241.667C128.387 241.963 128.601 242.211 128.87 242.411C129.147 242.611 129.471 242.759 129.84 242.856C130.21 242.952 130.609 243 131.038 243C131.45 243 131.836 242.948 132.197 242.844C132.559 242.741 132.87 242.589 133.13 242.389C133.399 242.181 133.609 241.93 133.761 241.633C133.92 241.337 134 240.996 134 240.611C134 240.122 133.87 239.711 133.609 239.378C133.349 239.037 132.95 238.793 132.412 238.644C132.79 238.496 133.088 238.278 133.307 237.989C133.534 237.693 133.647 237.367 133.647 237.011C133.647 236.759 133.597 236.515 133.496 236.278C133.395 236.033 133.235 235.819 133.017 235.633C132.807 235.441 132.529 235.289 132.185 235.178C131.84 235.059 131.424 235 130.937 235C130.592 235 130.261 235.044 129.941 235.133C129.63 235.222 129.353 235.352 129.109 235.522C128.866 235.693 128.672 235.904 128.529 236.156C128.387 236.4 128.315 236.685 128.315 237.011ZM129.134 240.656C129.134 240.426 129.181 240.219 129.273 240.033C129.374 239.848 129.508 239.689 129.676 239.556C129.853 239.422 130.055 239.322 130.282 239.256C130.517 239.181 130.765 239.144 131.025 239.144C131.277 239.144 131.513 239.185 131.731 239.267C131.958 239.341 132.155 239.444 132.324 239.578C132.492 239.711 132.622 239.87 132.714 240.056C132.815 240.233 132.866 240.43 132.866 240.644C132.866 240.867 132.819 241.07 132.727 241.256C132.643 241.441 132.517 241.604 132.349 241.744C132.189 241.878 131.996 241.985 131.769 242.067C131.55 242.141 131.307 242.178 131.038 242.178C130.483 242.178 130.025 242.044 129.664 241.778C129.311 241.504 129.134 241.13 129.134 240.656Z"
              fill="#97A0AF"/>
        <path d="M336 201.838V201H331V201.918H335.052C334.646 202.37 334.264 202.863 333.908 203.399C333.56 203.934 333.251 204.505 332.983 205.109C332.714 205.706 332.492 206.333 332.318 206.991C332.151 207.642 332.046 208.311 332.002 209H333.037C333.073 208.365 333.175 207.711 333.342 207.037C333.509 206.364 333.723 205.71 333.985 205.075C334.253 204.44 334.558 203.843 334.9 203.284C335.241 202.725 335.608 202.243 336 201.838Z"
              fill="#97A0AF"/>
        <path d="M300.909 203.263H301.792C301.737 202.529 301.529 201.971 301.168 201.587C300.808 201.196 300.323 201 299.713 201C299.186 201 298.75 201.133 298.403 201.4C298.057 201.667 297.78 202.021 297.572 202.463C297.364 202.904 297.215 203.412 297.125 203.987C297.042 204.554 297 205.142 297 205.75C297 206.217 297.028 206.7 297.083 207.2C297.146 207.7 297.267 208.158 297.447 208.575C297.627 208.992 297.884 209.333 298.216 209.6C298.549 209.867 298.989 210 299.536 210C300.001 210 300.389 209.908 300.701 209.725C301.019 209.533 301.272 209.296 301.459 209.012C301.653 208.721 301.792 208.4 301.875 208.05C301.958 207.7 302 207.362 302 207.037C302 206.629 301.948 206.25 301.844 205.9C301.74 205.55 301.591 205.246 301.397 204.988C301.21 204.729 300.974 204.529 300.69 204.387C300.413 204.237 300.098 204.162 299.744 204.162C299.342 204.162 298.985 204.254 298.674 204.438C298.369 204.621 298.112 204.917 297.904 205.325L297.884 205.3C297.891 204.958 297.918 204.592 297.967 204.2C298.015 203.808 298.102 203.446 298.227 203.112C298.358 202.771 298.538 202.492 298.767 202.275C298.996 202.05 299.297 201.938 299.672 201.938C300.025 201.938 300.309 202.058 300.524 202.3C300.739 202.542 300.867 202.862 300.909 203.263ZM299.578 205.1C299.827 205.1 300.046 205.154 300.233 205.262C300.42 205.371 300.576 205.517 300.701 205.7C300.825 205.875 300.915 206.088 300.971 206.338C301.033 206.579 301.064 206.838 301.064 207.113C301.064 207.371 301.03 207.621 300.96 207.863C300.898 208.096 300.805 208.304 300.68 208.488C300.555 208.671 300.399 208.817 300.212 208.925C300.032 209.025 299.821 209.075 299.578 209.075C299.335 209.075 299.117 209.025 298.923 208.925C298.736 208.817 298.577 208.675 298.445 208.5C298.32 208.325 298.223 208.117 298.154 207.875C298.085 207.633 298.05 207.375 298.05 207.1C298.05 206.825 298.081 206.567 298.143 206.325C298.213 206.075 298.313 205.863 298.445 205.688C298.577 205.504 298.736 205.363 298.923 205.262C299.11 205.154 299.328 205.1 299.578 205.1Z"
              fill="#97A0AF"/>
        <path d="M268.506 201.953V201H264.076L263.241 205.678L264.165 205.729C264.376 205.475 264.616 205.271 264.886 205.119C265.165 204.958 265.481 204.877 265.835 204.877C266.139 204.877 266.414 204.928 266.658 205.03C266.911 205.131 267.127 205.275 267.304 205.462C267.481 205.64 267.616 205.856 267.709 206.11C267.81 206.356 267.861 206.627 267.861 206.924C267.861 207.28 267.81 207.593 267.709 207.864C267.608 208.127 267.468 208.347 267.291 208.525C267.122 208.703 266.92 208.839 266.684 208.932C266.456 209.017 266.215 209.059 265.962 209.059C265.692 209.059 265.443 209.021 265.215 208.945C264.996 208.86 264.802 208.746 264.633 208.602C264.473 208.449 264.342 208.275 264.241 208.081C264.148 207.877 264.093 207.661 264.076 207.432H263C263.008 207.839 263.089 208.203 263.241 208.525C263.392 208.847 263.599 209.119 263.861 209.339C264.122 209.551 264.422 209.716 264.759 209.835C265.105 209.945 265.473 210 265.861 210C266.384 210 266.84 209.919 267.228 209.758C267.624 209.589 267.954 209.364 268.215 209.085C268.477 208.805 268.671 208.487 268.797 208.131C268.932 207.767 269 207.394 269 207.013C269 206.496 268.924 206.047 268.772 205.665C268.62 205.275 268.414 204.953 268.152 204.699C267.89 204.436 267.582 204.242 267.228 204.114C266.873 203.987 266.498 203.924 266.101 203.924C265.797 203.924 265.489 203.979 265.177 204.089C264.873 204.191 264.624 204.352 264.43 204.572L264.405 204.547L264.886 201.953H268.506Z"
              fill="#97A0AF"/>
        <path d="M232.832 206.281H229.899L232.807 202.365H232.832V206.281ZM233.817 206.281V201H232.979L229 206.202V207.127H232.832V209H233.817V207.127H235V206.281H233.817Z"
              fill="#97A0AF"/>
        <path d="M197.35 204.8V205.7C197.55 205.675 197.763 205.662 197.988 205.662C198.255 205.662 198.5 205.7 198.725 205.775C198.959 205.842 199.159 205.95 199.325 206.1C199.492 206.242 199.625 206.421 199.725 206.637C199.825 206.846 199.875 207.087 199.875 207.362C199.875 207.629 199.821 207.871 199.713 208.088C199.613 208.296 199.475 208.475 199.3 208.625C199.125 208.767 198.921 208.879 198.688 208.962C198.454 209.037 198.209 209.075 197.95 209.075C197.342 209.075 196.88 208.896 196.563 208.537C196.246 208.171 196.08 207.7 196.063 207.125H195.001C194.992 207.583 195.055 207.992 195.188 208.35C195.33 208.708 195.53 209.012 195.788 209.262C196.046 209.504 196.359 209.688 196.726 209.812C197.092 209.938 197.5 210 197.95 210C198.367 210 198.759 209.946 199.125 209.837C199.5 209.721 199.825 209.55 200.1 209.325C200.375 209.1 200.592 208.821 200.75 208.488C200.917 208.146 201 207.754 201 207.312C201 206.779 200.867 206.317 200.6 205.925C200.342 205.533 199.942 205.279 199.4 205.162V205.137C199.75 204.979 200.042 204.746 200.275 204.438C200.508 204.129 200.625 203.775 200.625 203.375C200.625 202.967 200.554 202.613 200.413 202.313C200.279 202.013 200.092 201.767 199.85 201.575C199.609 201.383 199.321 201.242 198.988 201.15C198.663 201.05 198.309 201 197.925 201C197.484 201 197.092 201.071 196.751 201.213C196.417 201.354 196.138 201.55 195.913 201.8C195.688 202.05 195.513 202.35 195.388 202.7C195.272 203.05 195.205 203.438 195.188 203.863H196.251C196.251 203.604 196.284 203.358 196.351 203.125C196.417 202.892 196.517 202.688 196.651 202.513C196.792 202.338 196.967 202.2 197.175 202.1C197.392 201.992 197.642 201.938 197.925 201.938C198.375 201.938 198.75 202.058 199.05 202.3C199.35 202.533 199.5 202.887 199.5 203.362C199.5 203.596 199.454 203.804 199.363 203.987C199.271 204.171 199.146 204.325 198.988 204.45C198.838 204.567 198.659 204.658 198.45 204.725C198.25 204.783 198.038 204.812 197.813 204.812H197.588C197.546 204.812 197.505 204.812 197.463 204.812C197.43 204.812 197.392 204.808 197.35 204.8Z"
              fill="#97A0AF"/>
        <path d="M162.213 203.832H163.117C163.11 203.591 163.131 203.354 163.181 203.121C163.238 202.881 163.326 202.666 163.447 202.478C163.567 202.29 163.72 202.14 163.904 202.027C164.096 201.906 164.323 201.846 164.585 201.846C164.784 201.846 164.972 201.88 165.149 201.948C165.326 202.016 165.479 202.113 165.606 202.241C165.741 202.369 165.848 202.523 165.926 202.704C166.004 202.877 166.043 203.072 166.043 203.291C166.043 203.569 166 203.813 165.915 204.024C165.837 204.235 165.716 204.43 165.553 204.611C165.397 204.791 165.199 204.972 164.957 205.152C164.716 205.325 164.436 205.517 164.117 205.728C163.855 205.893 163.603 206.07 163.362 206.258C163.121 206.446 162.904 206.664 162.713 206.913C162.521 207.161 162.362 207.454 162.234 207.793C162.113 208.124 162.035 208.526 162 209H166.926V208.154H163.053C163.096 207.906 163.184 207.687 163.319 207.499C163.461 207.304 163.628 207.123 163.819 206.958C164.018 206.792 164.234 206.638 164.468 206.495C164.702 206.345 164.936 206.194 165.17 206.044C165.404 205.886 165.631 205.72 165.851 205.547C166.071 205.374 166.266 205.182 166.436 204.972C166.606 204.754 166.741 204.509 166.84 204.238C166.947 203.968 167 203.655 167 203.302C167 202.926 166.936 202.595 166.809 202.309C166.688 202.023 166.521 201.786 166.309 201.598C166.096 201.402 165.844 201.256 165.553 201.158C165.27 201.053 164.965 201 164.638 201C164.241 201 163.887 201.071 163.574 201.214C163.262 201.357 163 201.557 162.787 201.812C162.582 202.061 162.429 202.358 162.33 202.704C162.23 203.05 162.191 203.426 162.213 203.832Z"
              fill="#97A0AF"/>
        <path d="M132 209V201H131.275C131.223 201.301 131.126 201.549 130.985 201.745C130.844 201.94 130.669 202.094 130.461 202.207C130.26 202.32 130.033 202.399 129.781 202.444C129.528 202.482 129.268 202.501 129 202.501V203.268H131.052V209H132Z"
              fill="#97A0AF"/>
        <path d="M331.686 173.118H332.615C332.601 172.749 332.522 172.434 332.378 172.171C332.24 171.903 332.047 171.681 331.8 171.506C331.559 171.331 331.277 171.203 330.953 171.122C330.63 171.041 330.279 171 329.901 171C329.563 171 329.233 171.041 328.91 171.122C328.593 171.197 328.307 171.315 328.053 171.478C327.805 171.634 327.606 171.837 327.454 172.087C327.303 172.331 327.227 172.621 327.227 172.959C327.227 173.265 327.292 173.521 327.423 173.727C327.561 173.927 327.74 174.092 327.96 174.224C328.187 174.349 328.442 174.452 328.724 174.533C329.006 174.608 329.291 174.676 329.581 174.739C329.876 174.795 330.165 174.851 330.448 174.908C330.73 174.964 330.981 175.039 331.201 175.133C331.428 175.22 331.607 175.336 331.738 175.479C331.875 175.623 331.944 175.81 331.944 176.041C331.944 176.285 331.889 176.485 331.779 176.641C331.669 176.797 331.525 176.922 331.346 177.016C331.167 177.104 330.964 177.166 330.737 177.203C330.516 177.241 330.296 177.26 330.076 177.26C329.801 177.26 329.532 177.228 329.271 177.166C329.009 177.104 328.779 177.007 328.579 176.876C328.387 176.744 328.228 176.579 328.104 176.379C327.987 176.173 327.929 175.929 327.929 175.648H327C327 176.054 327.079 176.407 327.237 176.707C327.403 177 327.623 177.244 327.898 177.438C328.18 177.625 328.504 177.766 328.868 177.859C329.24 177.953 329.632 178 330.045 178C330.382 178 330.719 177.963 331.057 177.888C331.401 177.819 331.71 177.706 331.986 177.55C332.261 177.388 332.484 177.182 332.656 176.932C332.835 176.676 332.925 176.369 332.925 176.013C332.925 175.682 332.856 175.407 332.718 175.189C332.588 174.97 332.409 174.789 332.182 174.645C331.961 174.502 331.71 174.389 331.428 174.308C331.146 174.22 330.857 174.145 330.561 174.083C330.272 174.021 329.987 173.964 329.704 173.914C329.422 173.858 329.168 173.789 328.941 173.708C328.72 173.627 328.541 173.524 328.404 173.399C328.273 173.268 328.208 173.099 328.208 172.893C328.208 172.674 328.252 172.493 328.342 172.349C328.438 172.199 328.562 172.081 328.713 171.993C328.872 171.906 329.051 171.843 329.25 171.806C329.45 171.768 329.653 171.75 329.859 171.75C330.368 171.75 330.785 171.859 331.108 172.078C331.438 172.29 331.631 172.637 331.686 173.118Z"
              fill="#97A0AF"/>
        <path d="M340 175.432V171.159H339.019V175.432C339.019 176.032 338.854 176.488 338.524 176.801C338.201 177.107 337.726 177.26 337.099 177.26C336.439 177.26 335.933 177.107 335.582 176.801C335.231 176.488 335.056 176.032 335.056 175.432V171.159H334.075V175.432C334.075 176.326 334.34 176.979 334.87 177.391C335.407 177.797 336.15 178 337.099 178C338.028 178 338.744 177.788 339.246 177.363C339.749 176.932 340 176.288 340 175.432Z"
              fill="#97A0AF"/>
        <path d="M298.657 173.118H299.58C299.566 172.749 299.487 172.434 299.344 172.171C299.207 171.903 299.016 171.681 298.769 171.506C298.53 171.331 298.25 171.203 297.928 171.122C297.607 171.041 297.258 171 296.882 171C296.547 171 296.219 171.041 295.898 171.122C295.583 171.197 295.299 171.315 295.046 171.478C294.8 171.634 294.602 171.837 294.451 172.087C294.301 172.331 294.226 172.621 294.226 172.959C294.226 173.265 294.291 173.521 294.421 173.727C294.557 173.927 294.735 174.092 294.954 174.224C295.18 174.349 295.433 174.452 295.713 174.533C295.993 174.608 296.277 174.676 296.564 174.739C296.858 174.795 297.145 174.851 297.426 174.908C297.706 174.964 297.956 175.039 298.175 175.133C298.4 175.22 298.578 175.336 298.708 175.479C298.845 175.623 298.913 175.81 298.913 176.041C298.913 176.285 298.858 176.485 298.749 176.641C298.64 176.797 298.496 176.922 298.318 177.016C298.14 177.104 297.939 177.166 297.713 177.203C297.494 177.241 297.275 177.26 297.057 177.26C296.783 177.26 296.516 177.228 296.257 177.166C295.997 177.104 295.768 177.007 295.569 176.876C295.378 176.744 295.221 176.579 295.097 176.379C294.981 176.173 294.923 175.929 294.923 175.648H294C294 176.054 294.079 176.407 294.236 176.707C294.4 177 294.619 177.244 294.892 177.438C295.173 177.625 295.494 177.766 295.857 177.859C296.226 177.953 296.616 178 297.026 178C297.361 178 297.696 177.963 298.031 177.888C298.373 177.819 298.681 177.706 298.954 177.55C299.228 177.388 299.45 177.182 299.621 176.932C299.799 176.676 299.887 176.369 299.887 176.013C299.887 175.682 299.819 175.407 299.682 175.189C299.552 174.97 299.375 174.789 299.149 174.645C298.93 174.502 298.681 174.389 298.4 174.308C298.12 174.22 297.833 174.145 297.539 174.083C297.251 174.021 296.968 173.964 296.687 173.914C296.407 173.858 296.154 173.789 295.928 173.708C295.709 173.627 295.532 173.524 295.395 173.399C295.265 173.268 295.2 173.099 295.2 172.893C295.2 172.674 295.245 172.493 295.333 172.349C295.429 172.199 295.552 172.081 295.703 171.993C295.86 171.906 296.038 171.843 296.236 171.806C296.434 171.768 296.636 171.75 296.841 171.75C297.347 171.75 297.761 171.859 298.082 172.078C298.41 172.29 298.602 172.637 298.657 173.118Z"
              fill="#97A0AF"/>
        <path d="M302.333 175.086L303.574 171.965H303.595L304.815 175.086H302.333ZM303.061 171.159L300.21 177.85H301.205L302.025 175.835H305.123L305.923 177.85H307L304.138 171.159H303.061Z"
              fill="#97A0AF"/>
        <path d="M261 171V178H261.907V174.794H265.038V174.01H261.907V171.784H265.477V171H261Z" fill="#97A0AF"/>
        <path d="M266.482 171V178H267.389V175.01H269.604C269.827 175.01 270.005 175.046 270.138 175.118C270.272 175.183 270.38 175.275 270.463 175.392C270.546 175.503 270.606 175.637 270.644 175.794C270.683 175.944 270.714 176.105 270.74 176.275C270.772 176.444 270.791 176.618 270.797 176.794C270.803 176.971 270.81 177.137 270.816 177.294C270.823 177.444 270.835 177.582 270.854 177.706C270.88 177.83 270.924 177.928 270.988 178H272C271.905 177.882 271.831 177.748 271.78 177.598C271.736 177.441 271.701 177.278 271.675 177.108C271.65 176.938 271.634 176.765 271.628 176.588C271.621 176.412 271.612 176.239 271.599 176.069C271.58 175.899 271.551 175.735 271.513 175.578C271.481 175.422 271.427 175.281 271.351 175.157C271.281 175.026 271.182 174.915 271.055 174.824C270.934 174.732 270.775 174.667 270.578 174.627V174.608C270.991 174.49 271.29 174.271 271.475 173.951C271.666 173.631 271.761 173.258 271.761 172.833C271.761 172.265 271.577 171.817 271.208 171.49C270.845 171.163 270.339 171 269.69 171H266.482ZM269.279 174.225H267.389V171.784H269.642C270.068 171.784 270.377 171.895 270.568 172.118C270.759 172.34 270.854 172.627 270.854 172.98C270.854 173.235 270.81 173.444 270.721 173.608C270.638 173.765 270.523 173.892 270.377 173.99C270.237 174.082 270.072 174.144 269.881 174.176C269.69 174.209 269.489 174.225 269.279 174.225Z"
              fill="#97A0AF"/>
        <path d="M228.348 171.784V178H229.286V171.784H231.634V171H226V171.784H228.348Z" fill="#97A0AF"/>
        <path d="M232.415 171V178H233.353V174.794H237.063V178H238V171H237.063V174.01H233.353V171H232.415Z"
              fill="#97A0AF"/>
        <path d="M198.168 178L200.094 171H199.136L197.674 176.824H197.654L196.061 171H195.023L193.41 176.824H193.389L191.978 171H191L192.845 178H193.843L195.507 172.118H195.527L197.17 178H198.168Z"
              fill="#97A0AF"/>
        <path d="M200.999 171V178H206V177.216H201.957V174.794H205.698V174.01H201.957V171.784H205.97V171H200.999Z"
              fill="#97A0AF"/>
        <path d="M160.536 171.767V177.847H161.548V171.767H164.083V171H158V171.767H160.536Z" fill="#97A0AF"/>
        <path d="M171 175.373V171H169.988V175.373C169.988 175.986 169.817 176.453 169.477 176.773C169.143 177.086 168.653 177.242 168.006 177.242C167.324 177.242 166.802 177.086 166.44 176.773C166.078 176.453 165.897 175.986 165.897 175.373V171H164.885V175.373C164.885 176.287 165.158 176.955 165.705 177.377C166.259 177.792 167.026 178 168.006 178C168.965 178 169.704 177.783 170.222 177.348C170.741 176.907 171 176.248 171 175.373Z"
              fill="#97A0AF"/>
        <path d="M123 171.159V177.85H123.952V172.284H123.973L126.331 177.85H127.187L129.546 172.284H129.567V177.85H130.518V171.159H129.144L126.754 176.782L124.375 171.159H123Z"
              fill="#97A0AF"/>
        <path d="M132.772 174.505C132.772 174.167 132.821 173.836 132.92 173.511C133.018 173.18 133.174 172.884 133.385 172.621C133.597 172.359 133.868 172.149 134.199 171.993C134.531 171.831 134.925 171.75 135.384 171.75C135.842 171.75 136.237 171.831 136.568 171.993C136.899 172.149 137.171 172.359 137.382 172.621C137.594 172.884 137.749 173.18 137.847 173.511C137.946 173.836 137.995 174.167 137.995 174.505C137.995 174.842 137.946 175.176 137.847 175.507C137.749 175.832 137.594 176.126 137.382 176.388C137.171 176.651 136.899 176.863 136.568 177.025C136.237 177.182 135.842 177.26 135.384 177.26C134.925 177.26 134.531 177.182 134.199 177.025C133.868 176.863 133.597 176.651 133.385 176.388C133.174 176.126 133.018 175.832 132.92 175.507C132.821 175.176 132.772 174.842 132.772 174.505ZM131.767 174.505C131.767 174.961 131.841 175.401 131.989 175.826C132.144 176.245 132.373 176.616 132.677 176.941C132.98 177.266 133.357 177.525 133.808 177.719C134.259 177.906 134.784 178 135.384 178C135.983 178 136.508 177.906 136.959 177.719C137.41 177.525 137.787 177.266 138.091 176.941C138.394 176.616 138.619 176.245 138.767 175.826C138.922 175.401 139 174.961 139 174.505C139 174.049 138.922 173.611 138.767 173.193C138.619 172.768 138.394 172.393 138.091 172.068C137.787 171.743 137.41 171.484 136.959 171.29C136.508 171.097 135.983 171 135.384 171C134.784 171 134.259 171.097 133.808 171.29C133.357 171.484 132.98 171.743 132.677 172.068C132.373 172.393 132.144 172.768 131.989 173.193C131.841 173.611 131.767 174.049 131.767 174.505Z"
              fill="#97A0AF"/>
        <path fill-rule="evenodd" clip-rule="evenodd"
              d="M336.195 143L333 140.175L334.332 139L340 144L334.332 149L333 147.825L336.195 145H328V143H336.195Z"
              fill="#97A0AF"/>
        <path fill-rule="evenodd" clip-rule="evenodd"
              d="M126.805 143L130 140.175L128.668 139L123 144L128.668 149L130 147.825L126.805 145H135V143H126.805Z"
              fill="#97A0AF"/>
    </g>
    <defs>
        <filter id="filter0_d" x="47" y="6" width="258" height="286" filterUnits="userSpaceOnUse"
                color-interpolation-filters="sRGB">
            <feFlood flood-opacity="0" result="BackgroundImageFix"/>
            <feColorMatrix in="SourceAlpha" type="matrix" values="0 0 0 0 0 0 0 0 0 0 0 0 0 0 0 0 0 0 127 0"/>
            <feOffset dx="-8" dy="-5"/>
            <feGaussianBlur stdDeviation="5"/>
            <feColorMatrix type="matrix" values="0 0 0 0 0.8125 0 0 0 0 0.8125 0 0 0 0 0.8125 0 0 0 0.2 0"/>
            <feBlend mode="normal" in2="BackgroundImageFix" result="effect1_dropShadow"/>
            <feBlend mode="normal" in="SourceGraphic" in2="effect1_dropShadow" result="shape"/>
        </filter>
        <filter id="filter1_d" x="42" y="7" width="361" height="450" filterUnits="userSpaceOnUse"
                color-interpolation-filters="sRGB">
            <feFlood flood-opacity="0" result="BackgroundImageFix"/>
            <feColorMatrix in="SourceAlpha" type="matrix" values="0 0 0 0 0 0 0 0 0 0 0 0 0 0 0 0 0 0 127 0"/>
            <feOffset dx="-12" dy="-2"/>
            <feGaussianBlur stdDeviation="20"/>
            <feColorMatrix type="matrix" values="0 0 0 0 0 0 0 0 0 0 0 0 0 0 0 0 0 0 0.09 0"/>
            <feBlend mode="normal" in2="BackgroundImageFix" result="effect1_dropShadow"/>
            <feBlend mode="normal" in="SourceGraphic" in2="effect1_dropShadow" result="shape"/>
        </filter>
        <linearGradient id="paint0_linear" x1="-7.00001" y1="157" x2="629.662" y2="103.373"
                        gradientUnits="userSpaceOnUse">
            <stop stop-color="#6554C0"/>
            <stop offset="1" stop-color="#E6FCFF"/>
        </linearGradient>
        <clipPath id="clip0">
            <rect width="450" height="450" fill="white"/>
        </clipPath>
    </defs>
</svg>
