<svg width="450" height="454" viewBox="0 0 450 454" fill="none" xmlns="http://www.w3.org/2000/svg">
    <g filter="url(#filter0_d)">
        <path d="M66 97H383V336C383 340.418 379.418 344 375 344H74C69.5817 344 66 340.418 66 336V97Z" fill="white"/>
        <path d="M66 50C66 45.5817 69.5817 42 74 42H375C379.418 42 383 45.5817 383 50V97H66V50Z"
              fill="url(#paint0_linear)"/>
    </g>
    <rect x="116" y="284" width="76" height="14" rx="2" fill="#C4C4C4"/>
    <rect x="90" y="125" width="30" height="30" rx="15" fill="#99D18F"/>
    <rect x="149" y="125" width="30" height="30" rx="15" fill="#99D18F"/>
    <rect x="120" y="125" width="29" height="30" rx="14.5" fill="#5976D2"/>
    <rect x="90" y="282" width="16" height="16" rx="8" fill="#5976D2"/>
    <rect x="116" y="224" width="76" height="14" rx="2" fill="#C4C4C4"/>
    <rect x="90" y="222" width="16" height="16" rx="8" fill="#99D18F"/>
    <rect x="116" y="254" width="109" height="14" rx="2" fill="#C4C4C4"/>
    <rect x="90" y="252" width="16" height="16" rx="8" fill="#99D18F"/>
    <path d="M162.89 131V138.754H155V140.785H162.89V149H165.11V140.785H173V138.754H165.11V131H162.89Z" fill="white"/>
    <defs>
        <filter id="filter0_d" x="14" y="0" width="397" height="382" filterUnits="userSpaceOnUse"
                color-interpolation-filters="sRGB">
            <feFlood flood-opacity="0" result="BackgroundImageFix"/>
            <feColorMatrix in="SourceAlpha" type="matrix" values="0 0 0 0 0 0 0 0 0 0 0 0 0 0 0 0 0 0 127 0"/>
            <feOffset dx="-12" dy="-2"/>
            <feGaussianBlur stdDeviation="20"/>
            <feColorMatrix type="matrix" values="0 0 0 0 0 0 0 0 0 0 0 0 0 0 0 0 0 0 0.09 0"/>
            <feBlend mode="normal" in2="BackgroundImageFix" result="effect1_dropShadow"/>
            <feBlend mode="normal" in="SourceGraphic" in2="effect1_dropShadow" result="shape"/>
        </filter>
        <linearGradient id="paint0_linear" x1="383" y1="69.5" x2="58.075" y2="69.5" gradientUnits="userSpaceOnUse">
            <stop stop-color="#00B8D9"/>
            <stop offset="1" stop-color="#0065FF"/>
        </linearGradient>
    </defs>
</svg>
